<?xml version="1.0" encoding="UTF-8" standalone="no"?>
<!-- Created with Inkscape (http://www.inkscape.org/) -->
<svg id="svg3507" xmlns:rdf="http://www.w3.org/1999/02/22-rdf-syntax-ns#" xmlns="http://www.w3.org/2000/svg" height="356.25" viewBox="0 0 842.5 356.25" width="842.5" version="1.1" xmlns:cc="http://creativecommons.org/ns#" xmlns:dc="http://purl.org/dc/elements/1.1/">
 <metadata id="metadata3513">
  <rdf:RDF>
   <cc:Work rdf:about="">
    <dc:format>image/svg+xml</dc:format>
    <dc:type rdf:resource="http://purl.org/dc/dcmitype/StillImage"/>
    <dc:title/>
   </cc:Work>
  </rdf:RDF>
 </metadata>
 <path id="path3517" d="m435.13 350.34c0-0.86343 1.6228-2.2882 3.6061-3.1661 1.9834-0.87791 4.7958-2.6281 6.25-3.8893 2.584-2.2411 2.6439-3.157 2.6439-40.442v-38.149l-5.6492-0.84715c-3.1071-0.46594-5.3239-1.3736-4.9262-2.0169 0.79414-1.2849 20.43-1.6269 23.598-0.41104 3.4624 1.3286 2.1297 2.9913-2.3978 2.9913h-4.375v39.375c0 24.907-0.45055 39.375-1.2262 39.375-0.6744 0-1.5654 1.3514-1.9799 3.003-0.57153 2.2772-2.0707 3.3346-6.2024 4.375-7.0688 1.78-9.3416 1.7318-9.3416-0.19788zm90.79-13.118c-1.1492-2.5781-3.6719-11.969-5.6061-20.868-4.9536-22.791-6.4343-21.968-6.4343 3.5762 0 19.896-0.1005 20.729-2.5 20.729-2.4495 0-2.5-0.83334-2.5-41.25 0-45.949-0.69318-42.708 8.5658-40.053 7.1096 2.039 8.9363 5.353 8.9191 16.182-0.013 7.7564-0.5734 10.473-3.0625 14.826l-3.0476 5.3302 2.3644 12.17c2.6688 13.737 5.9323 25.339 7.6243 27.107 1.7497 1.8282 1.3456 6.9375-0.5487 6.9375-0.9268 0-2.6253-2.1094-3.7744-4.6875zm-7.6975-47.75c1.2714-2.4586 1.9071-7.2357 1.9071-14.331 0-9.2432-0.3181-10.813-2.4179-11.937-1.3298-0.71169-2.736-1.294-3.125-1.294-0.38891 0-0.70713 7.0312-0.70713 15.625 0 16.15 0.89383 18.607 4.3429 11.937zm-195.69 45.875c-0.79358-2.9219-1.574-5.875-1.7344-6.5625-0.16033-0.6875-0.57863-2.0938-0.92957-3.125s-2.9278-8.625-5.7262-16.875c-9.3084-27.441-12.67-36.219-14.049-36.678-0.97128-0.32377-1.2535 9.3265-0.97757 33.425l0.38795 33.88-2.8125-0.001-2.8125-0.001 0.0171-37.188c0.01-20.453 0.35624-38.453 0.77079-40 1.0776-4.021 5.8417-3.6801 8.7342 0.625 3.954 5.8849 4.872 8.0564 9.1153 21.562 2.268 7.2188 5.1899 16.452 6.4931 20.519 1.3032 4.0667 2.3949 8.2854 2.426 9.375s1.4119 4.5123 3.0685 7.606l3.012 5.625 0.0565-34.149 0.0565-34.149 2.8125 0.39943 2.8125 0.39944 0.33291 33.438c0.23126 23.227-0.0775 33.438-1.0113 33.438-0.73931 0-1.0508 0.47466-0.69229 1.0548 0.93096 1.5063-1.7592 10.644-3.456 11.739-2.97 1.9162-4.498 0.78709-5.8949-4.3559zm48.847 3.8252c0-3.7675 3.1154-16.013 4.0739-16.013 0.59053 0 0.74124-0.5379 0.33493-1.1953-0.40631-0.65744 0.0951-4.7908 1.1142-9.1852 3.2145-13.861 6.977-37.774 6.977-44.344 0-8.7674 0.80575-10.276 5.4887-10.276h3.9712l1.5298 15.312c4.2929 42.969 5.3375 52.043 6.6206 57.515 1.6368 6.9795 0.92752 9.673-2.5474 9.673-2.6273 0-3.0266-1.012-4.4142-11.188-1.0036-7.3598-2.4391-8.812-8.7109-8.812h-5.2559l-1.5496 8.4101c-0.8523 4.6256-2.1434 9.1256-2.8691 10-1.6648 2.006-4.7634 2.0728-4.7634 0.10265zm20-37.713c0-16.682-0.99394-27.049-2.5933-27.049-0.55193 0-1.3806 2.6719-1.8415 5.9375s-1.5726 9.5938-2.4703 14.062c-0.89776 4.4688-2.0262 11.359-2.5076 15.312l-0.87531 7.1875h5.144 5.144v-15.451zm78.75 36.21c0-1.6448 1.668-9.9702 3.7067-18.501 4.2062-17.6 8.7933-44.797 8.7933-52.136 0-7.4092 0.94999-8.8729 5.7587-8.8729 4.223 0 4.2414 0.0256 4.2657 5.9375 0.0134 3.2656 0.8525 12.125 1.8646 19.688 1.0121 7.5625 1.8449 17.584 1.8506 22.27 0.006 4.6858 0.50513 9.4671 1.1098 10.625 0.60468 1.1579 1.465 7.0685 1.9117 13.135 0.80746 10.963 0.79527 11.027-2.0369 10.625-2.5192-0.35744-2.9352-1.3032-3.5919-8.1664-0.92928-9.7125-2.4411-11.613-9.2389-11.613h-5.3004l-1.4954 9.2696c-1.4109 8.7464-2.6035 10.73-6.4499 10.73-0.63126 0-1.1478-1.3457-1.1478-2.9905zm21.252-28.572c0.002-10.561-2.5705-35.938-3.6431-35.937-0.74156 0.00054-7.6487 37.585-7.6227 41.479 0.009 1.3313 1.2769 2.2958 3.4515 2.6252 8.2108 1.2438 7.8124 1.6603 7.8143-8.1672zm-227.92 29.479c-0.45834-0.45832-0.83334-1.8646-0.83334-3.125 0-1.713 0.94697-2.2917 3.75-2.2917h3.75v-34.375c0-33.053-0.0922-34.375-2.3978-34.375-3.7256 0-6.3522-1.3475-6.3522-3.2587 0-1.3662 2.5581-1.7413 11.875-1.7413 9.6197 0 11.875 0.34931 11.875 1.8393 0 1.0259-1.7965 2.3046-4.0625 2.8914l-4.0625 1.0522-0.33259 33.984-0.33259 33.984h5.0201c4.5214 0 5.0201 0.31041 5.0201 3.125 0 3.0975-0.0972 3.125-11.042 3.125-6.0729 0-11.417-0.375-11.875-0.83334zm-207.05-46.659-11.841-2.2397-9.4481-9.8217c-11.505-11.96-14.785-17.652-22.231-38.572l-5.7833-16.25-0.0532-21.25c-0.0417-16.648 0.42966-23.01 2.1764-29.375 2.8804-10.496 8.8983-23.366 12.173-26.032 2.8179-2.2946 3.4605-3.3076 10.18-16.048 6.9019-13.087 7.0456-13.119 14.933-3.3368 3.7041 4.5939 8.5782 10.295 10.831 12.669 3.0362 3.1992 3.8836 5.003 3.2745 6.9699-1.5669 5.0594-7.8023 16.562-9.9396 18.336-2.9271 2.4292-6.8062 11.807-6.8062 16.454 0 5.8 4.9953 26.211 7.2782 29.739 1.1122 1.7188 3.0471 5.0938 4.2998 7.5s5.207 6.6902 8.7873 9.5198c5.0853 4.019 8.296 5.4747 14.673 6.6523 7.4511 1.376 8.7496 1.2764 14.882-1.1407 15.02-5.9203 40.186-23.209 41.971-28.833 0.92264-2.907 4.5932-2.869 5.0235 0.052 0.15191 1.0312 2.0292 4.9688 4.1717 8.75s4.4395 8.1182 5.1045 9.6376c0.66495 1.5194 2.427 3.9806 3.9157 5.4693 2.5925 2.5925 2.6215 2.8853 0.68694 6.9421-1.1109 2.3295-2.3835 6.6183-2.8281 9.5307-1.07 7.0087-2.5544 9.6703-5.3934 9.6703-1.2869 0-6.5349 3.5156-11.662 7.8125-26.278 22.022-42.594 29.959-60.768 29.561-3.1718-0.0694-11.095-1.134-17.608-2.3658zm36.52-7.6106c4.249-1.4314 10.278-4.0584 13.398-5.8378 7.6963-4.3895 35.048-24.263 35.048-25.466 0-0.5309-1.4062-2.4826-3.125-4.3372s-3.125-4.7137-3.125-6.3536c0-5.5884-4.3284-4.8715-13.762 2.2791-6.1808 4.6851-24.437 14.566-27.794 15.042-2.0208 0.28695-2.9311 1.3738-3.2146 3.8378-0.47049 4.089-2.6748 4.5416-3.6656 0.75267-0.65971-2.5228-0.79994-2.551-2.3229-0.46822-0.94675 1.2948-2.4452 1.9002-3.6032 1.4559-1.1034-0.42343-2.2648-0.0247-2.6193 0.89919-0.8266 2.1541-11.506 2.0333-12.34-0.13954-0.32997-0.85938-1.4414-1.5625-2.4699-1.5625s-4.2805-1.7099-7.2267-3.7997c-2.9462-2.0899-7.1026-5.0088-9.2365-6.4866-4.208-2.9142-7.7258-9.5029-11.86-22.214-1.9957-6.1353-2.6878-11.645-2.8264-22.5-0.17853-13.985-0.0614-14.649 4.32-24.483 2.477-5.5594 6.0204-12.309 7.8742-15l3.3707-4.8919-4.6888-3.75c-5.0827-4.065-7.8146-6.8344-12.067-12.232l-2.743-3.4821-4.5435 3.7669c-2.9991 2.4864-5.6052 6.4319-7.6668 11.607-5.3149 13.342-6.2305 20.068-5.666 41.626 0.51067 19.503 0.62938 20.234 5.137 31.652 2.5378 6.4284 4.6143 12.254 4.6143 12.946 0 3.3141 7.9222 17.257 12.73 22.405 10.482 11.222 14.058 13.605 23.134 15.409 13.307 2.6459 27.871 2.3796 36.94-0.67539zm-17.888-30.569c1.5395-8.8402 1.1572-10.578-2.3267-10.578-2.4259 0-3.7996 5.049-3.826 14.062-0.0111 3.7745 0.44821 4.6875 2.3579 4.6875 1.9419 0 2.6295-1.4807 3.7948-8.1719zm-11.283-14.796c-3.8373-3.4286-4.1234-3.4981-4.971-1.207-0.94469 2.5537-1.6338 10.341-1.3373 15.113 0.2823 4.5443 2.6747 3.2195 2.6747-1.4811 0-5.0012 2.1759-11.447 3.438-10.185 0.47744 0.47744 0.78189 5.1961 0.67656 10.486l-0.19152 9.6178 1.8911-9.3525 1.8911-9.3526-4.0717-3.638zm16.849 18.281c2.2569-11.383 2.3057-12.812 0.43743-12.812-1.9944 0-3.4204 5.0159-3.4204 12.031 0 5.0719 2.027 5.6028 2.9829 0.78125zm7.5786-6.875c1.1392-8.0368-1.2181-7.7387-2.958 0.37402-1.805 8.4164-1.7422 9.6342 0.38139 7.3938 0.95424-1.0067 2.1137-4.5022 2.5766-7.7679zm6.1572 1.4062c1.2091-6.0454 0.98333-10.546-0.45676-9.1058-1.78 1.78-3.1509 13.012-1.5882 13.012 0.69501 0 1.6152-1.7578 2.0449-3.9062zm6.4495-6.7188c0.68835-4.923 0.54749-5.9413-0.66345-4.7962-0.84556 0.79957-1.8236 4.1746-2.1734 7.5-0.8569 8.146 1.6545 5.7524 2.8369-2.7038zm6.0926-3.318c0.45212-2.8274 0.53787-5.4249 0.19055-5.7722-0.8742-0.8742-2.6845 4.3464-3.5856 10.34-0.65388 4.3494-0.53539 4.712 0.91066 2.7864 0.91428-1.2175 2.0322-4.527 2.4844-7.3544zm-51.307-7.307c0.0942-1.0312-0.39123-2.1373-1.0787-2.4578-1.4884-0.69402-3.5073 13.477-2.3091 16.208 0.69887 1.593 2.7449-6.7111 3.3878-13.75zm91.73-1.875c-0.17006-2.0625-0.87171-3.75-1.5592-3.75-0.7194 0-1.336 4.5102-1.4527 10.625l-0.20272 10.625 1.7619-6.875c0.96906-3.7812 1.6228-8.5625 1.4527-10.625zm-97.972 3.5633c0.75297-9.7958 0.47759-13.05-0.98032-11.584-0.98684 0.99206-3.0576 18.896-2.3875 20.642 1.5295 3.9858 2.583 1.1525 3.3678-9.0577zm64.294 2.6745c0.43573-8.5603-1.1527-8.1422-3.3362 0.87817-1.82 7.5188-1.8201 7.5184 0.76755 7.026 1.7397-0.3311 2.2655-1.949 2.5686-7.9042zm7.0214-7.4878c0.66757-3.6398 0.54149-4.6339-0.46346-3.6543-0.75927 0.74013-1.6469 4.3964-1.9725 8.125-0.63717 7.2961 0.74217 4.7646 2.436-4.4707zm20.339 3.4613c-0.31693-1.2162-0.59708-0.52379-0.62255 1.5387-0.0255 2.0625 0.23382 3.0576 0.57623 2.2113 0.3424-0.84629 0.36324-2.5338 0.0463-3.75zm-100.13-3.52c-2.3641-2.3641-2.3967-2.1055-0.42218 3.3423 1.3421 3.7028 1.5943 3.8872 1.9622 1.4344 0.2322-1.548-0.46082-3.6976-1.54-4.7768zm85.227 4.1539c0.74895-1.5469 2.1908-5.3438 3.204-8.4375 1.0132-3.0938 2.2698-6.75 2.7923-8.125 0.76383-2.0099 0.20163-1.8038-2.868 1.0518-2.7184 2.5289-4.063 5.185-4.6684 9.2223-0.46769 3.1188-1.1465 6.4423-1.5085 7.3857-1.1046 2.8785 1.5939 1.9072 3.0486-1.0973zm14.529-10.764c0.91855-1.4194 1.2659-1.4185 2.1684 0.006 0.8053 1.2709 1.0694 1.0694 1.054-0.80405-0.0203-2.4646-2.6394-6.875-4.0826-6.875-1.0683 0-3.3613 8.8194-3.25 12.5l0.0945 3.125 1.461-3.1308c0.80354-1.7219 1.9532-3.8914 2.5547-4.821zm-99.89-15.91c0.62489-9.4363 0.50259-13.259-0.39655-12.394-1.9776 1.9014-3.8161 15.762-2.537 19.127 0.66297 1.7437 0.63134 3.8012-0.0788 5.1281-0.6523 1.2188-0.83235 3.5684-0.40011 5.2213l0.78589 3.0052 0.86153-3.2214c0.47384-1.7718 1.2681-9.3613 1.7651-16.866zm4.892 14.324c1.1694-5.8472 0.9672-7.8701-1.054-10.542-1.6729-2.2118-1.8388-1.6802-1.875 6.0111-0.0414 8.7845 1.5775 11.289 2.929 4.5312zm5.1972-79.714c-1.021-1.021-2.1486-1.5642-2.5058-1.207-1.2351 1.2351-2.2275 12.196-1.3078 14.445 0.71198 1.7407 1.466 0.69717 3.2965-4.5623 2.0991-6.0311 2.1589-7.0338 0.51702-8.6756zm4.6967 8.6181c0.35982-1.3759 0.14418-2.1865-0.47921-1.8012-0.62338 0.38527-1.1334 1.511-1.1334 2.5017 0 2.5872 0.84937 2.2182 1.6126-0.7005zm-11.72-3.7483c-0.0453-1.2363-0.43465-1.0234-1.143 0.625-1.4767 3.4364-1.4767 5.41 0 3.125 0.66644-1.0312 1.1808-2.7188 1.143-3.75zm-2.6377-16.68c-1.3346-2.4688-1.6468-2.0655-3.7196 4.805-3.0879 10.235-1.6693 13.197 2.189 4.57 2.4566-5.4929 2.7286-7.1589 1.5306-9.375zm3.5725 8.8675c-0.34677-0.85938-0.63048-0.15625-0.63048 1.5625s0.28371 2.4219 0.63048 1.5625c0.34676-0.85938 0.34676-2.2656 0-3.125zm-10.847-3.8238c0.0105-0.5562-0.54336-0.66362-1.2309-0.23872-0.6875 0.4249-1.2414 1.7237-1.2309 2.8863 0.0165 1.8216 0.18661 1.8546 1.2309 0.23873 0.66644-1.0312 1.2203-2.3301 1.2309-2.8863zm702.52 150.67c-5.4507-0.80594-28.82-7.7632-32.542-9.6881-5.5861-2.8887-15.838-10.592-23.797-17.882-7.1254-6.5261-18.03-14.891-31.756-24.358-3.7974-2.6194-6.9044-5.6272-6.9044-6.684 0-1.0569 3.6022-5.6638 8.0049-10.238 4.4027-4.5738 9.6059-10.202 11.562-12.508 1.9567-2.3057 6.126-7.087 9.2653-10.625 6.9633-7.8479 14.29-17.47 25.839-33.933 4.8229-6.875 11.514-15.312 14.868-18.75 3.3547-3.4375 8.8779-9.625 12.274-13.75 3.3959-4.125 8.4316-9.8906 11.19-12.812 5.8085-6.152 7.0949-6.3317 23.617-3.2993 10.607 1.9468 11.399 2.3344 22.342 10.94 6.24 4.907 13.058 10.167 15.152 11.689 2.0935 1.522 5.8207 4.4199 8.2826 6.4398 20.719 16.999 26.112 21.73 28.593 25.087l2.8519 3.8574-2.9898 1.1367c-1.6443 0.62519-5.6713 4.2756-8.9489 8.112-6.3644 7.4496-9.2542 8.4306-16.512 5.6053-5.6154-2.1861-16.504-4.8801-19.724-4.8801-1.9018 0-4.6692-1.9082-7.7515-5.3449-7.0933-7.9089-19.684-18.405-22.078-18.405-1.1498 0-2.0905 0.84375-2.0905 1.875s-0.8322 1.875-1.8493 1.875c-2.2441 0-19.432 17.008-19.325 19.123 0.042 0.82605 3.4549 4.0332 7.5853 7.1269 4.1305 3.0938 10.082 7.7733 13.226 10.399 3.1435 2.6257 7.0426 5.6435 8.6647 6.7063 4.0669 2.6648 3.7033 5.0348-1.556 10.142-2.4777 2.4064-5.0729 6.0044-5.767 7.9956-0.6942 1.9912-1.9013 3.3471-2.6825 3.0132-0.7812-0.33396-4.5142-1.526-8.2954-2.649-3.7813-1.123-11.922-3.7485-18.09-5.8345-10.749-3.6351-11.372-3.7079-15-1.7523-3.6372 1.9606-9.4219 8.9962-9.3992 11.432 0.01 0.64496 3.2404 3.2576 7.1875 5.8058 7.4094 4.7835 33.292 24.978 39.364 30.713 3.7571 3.5486 4.4879 6.529 1.6009 6.529-2.3289 0-11.038 13.47-10.171 15.731 0.8139 2.1209-0.2707 2.6476-4.2426 2.0603zm0.7113-4.1809c1.2734-2.0604-1.729-3.4141-9.4506-4.2609-3.7871-0.41532-8.5732-1.0606-10.636-1.4339-6.3271-1.1453-2.005 1.6214 6.875 4.401 9.4419 2.9554 12.028 3.2087 13.211 1.2939zm2.4423-6.064c-1.2583-2.036-9.6475-3.7885-17.529-3.6617-6.2768 0.101-6.8884 0.29001-3.75 1.1591 3.1975 0.88542 15.022 2.9299 20.386 3.5249 0.9 0.0999 1.3015-0.3602 0.8924-1.0222zm-27.639-9.7338c3.1443-3.9531 5.7173-8.3125 5.7177-9.6875 0.0005-1.4118-1.7638-3.7172-4.0532-5.2964-2.2296-1.538-6.0227-4.6398-8.4289-6.893-2.4063-2.2531-10.984-9.3425-19.062-15.754-8.0782-6.4117-14.688-12.357-14.688-13.213 0-0.85545 1.5468-2.9402 3.4375-4.6327 1.8906-1.6925 5.9079-5.9747 8.9272-9.5159 3.0194-3.5412 6.2968-6.7482 7.283-7.1267 1.0782-0.41373 4.6664 2.0524 8.9983 6.1843 3.9627 3.7798 8.1002 6.8724 9.1944 6.8724 1.0941 0 3.2431-1.8281 4.7756-4.0625 1.5324-2.2344 4.1852-5.5864 5.8951-7.449l3.1089-3.3865-7.8346-7.6662c-9.1002-8.9046-9.1088-8.7982 1.6347-20.072 3.5502-3.7255 9.9777-11.125 14.283-16.444 4.3057-5.3185 8.6891-9.67 9.7409-9.67 2.2807 0 14.63 8.817 19.974 14.261 2.0861 2.1252 8.2265 7.9889 13.645 13.031l9.8524 9.1667 4.1035-4.4792c2.2569-2.4635 4.7053-4.4792 5.441-4.4792 2.8912 0-0.5391-6.7306-5.9586-11.692-3.1145-2.8509-6.8358-6.3415-8.2696-7.7569-3.9139-3.8636-18.935-16.654-29.163-24.832l-9.0558-7.2408-4.5239 3.972c-2.4882 2.1846-10.44 11.386-17.672 20.448-7.2313 9.0617-13.979 17.145-14.995 17.964-1.0158 0.81836-4.7384 5.686-8.2725 10.817-8.8416 12.837-34.137 43.862-41.906 51.398-3.5171 3.4116-6.3946 6.7979-6.3946 7.5249 0 0.72705 3.8356 3.6888 8.5237 6.5817 4.688 2.8928 11.625 7.9441 15.415 11.225 3.7902 3.2809 11.321 9.6216 16.735 14.09 5.4139 4.4688 11.274 9.65 13.022 11.514 1.7485 1.8638 3.5554 3.4107 4.0153 3.4375s3.4089-3.1857 6.5532-7.1388zm31.307 6.0239c0.3955-0.64 0.1267-1.5298-0.5974-1.9773-2.038-1.2596-22.679-4.3798-23.916-3.6153-2.4999 1.545 0.753 3.0107 6.8284 3.0768 3.5688 0.0387 8.4575 0.81545 10.864 1.7259 5.6485 2.1372 5.9662 2.174 6.8216 0.78996zm1.9221-6.0239c0-0.51563-4.8477-2.275-10.765-3.9096-8.8307-2.4395-10.946-2.6694-11.803-1.283-1.3815 2.2353 0.8542 3.5559 6.3241 3.7356 2.4062 0.079 5.7812 0.5941 7.5 1.1445 4.1255 1.3212 8.7516 1.4866 8.7437 0.3125zm-12.494-12.251c0-0.86057-8.1385-4.3112-10.168-4.3112-2.3064 0-0.093 1.7122 4.3204 3.3424 4.6388 1.7134 5.8478 1.9137 5.8478 0.96881zm-12.5-9.9362c-0.8559-1.0312-3.006-1.875-4.7781-1.875-4.9834 0-0.9346 2.7835 5.2436 3.605 0.5998 0.0798 0.3903-0.69875-0.4655-1.73zm-8.75-6.2179c0-0.3261-1.6875-1.4655-3.75-2.5321-4.1709-2.1568-4.736-1.7895-1.7857 1.1607 1.8159 1.816 5.5357 2.7375 5.5357 1.3714zm-12.079-16.96c-0.5755-0.56126-2.7339-1.3929-4.7964-1.8481l-3.75-0.82765 3.672 2.543c3.393 2.3498 7.2557 2.455 4.8744 0.13274zm55.386-5.8849c4.6989-5.9107 6.2616-8.4665 4.518-7.3889-0.7207 0.44542-3.3082-0.0249-5.7501-1.0452-6.07-2.5362-26.724-5.9877-30.364-5.0742-4.1967 1.0533-3.8344 4.4448 0.4754 4.4498 5.1838 0.006 25.46 3.7368 28.158 5.1812 4.2957 2.299 1.2367 2.5583-7.4324 0.63024-9.9516-2.2133-25.796-4.4516-26.58-3.7549-1.3716 1.2182 2.867 3.0986 16.167 7.1721 7.9062 2.4216 14.984 4.4286 15.728 4.4601 0.7443 0.0315 3.0301-2.0521 5.0796-4.6303zm-50.182 2.1852c1.195-1.9336-5.1201-3.7869-15.678-4.601-6.5462-0.50482-9.8679-0.2884-10.468 0.68195-0.6013 0.97296 0.8209 1.4532 4.5078 1.522 2.9624 0.0554 7.9175 0.82561 11.011 1.7117 7.2443 2.075 9.6709 2.2315 10.626 0.68532zm-1.3936-6.2648c-1.9959-1.9959-14.779-4.2841-17.461-3.1256-1.7941 0.77506-0.1963 1.4152 6.3531 2.5452 11.92 2.0566 12.621 2.0932 11.108 0.58037zm-5.5317-8.1598c-3.2893-3.5013-7.8142-3.6891-8.4501-0.35071-0.386 2.0261 1.6039 2.7622 9.0294 3.3404 2.1971 0.17108 2.147-0.0877-0.5793-2.9897zm43.799-4.323c-10.27-3.9478-13.179-4.4352-14.426-2.4168-1.2086 1.9555-0.7908 2.1249 10.093 4.0934 14.279 2.5825 14.844 2.3639 4.3331-1.6766zm-2.4595-7.4258c-2.6978-2.0731-10.04-4.2097-10.04-2.9216 0 0.66923 10.374 5.2926 11.875 5.2922 0.6875-0.00019-0.1381-1.067-1.8345-2.3706zm-9.3233-7.4249c-0.6815-1.1028-6.9672-2.7363-6.9672-1.8106 0 0.54908 5.0603 2.7087 6.6362 2.8321 0.5562 0.0436 0.7052-0.4161 0.331-1.0215zm85.239-2.9043c-0.5637-1.6912-4.4735-2.8611-15.058-4.5059-10.307-1.6015-9.9144 0.20273 0.7007 3.2224 10.592 3.0132 15.068 3.4132 14.358 1.2835zm4.9828-4.4383c0.6395-1.9184-11.232-5.3066-18.592-5.3066-6.2948 0-10.051 2.4379-3.9832 2.5853 1.9312 0.0469 7.1675 1.0894 11.636 2.3166 8.9224 2.4503 10.241 2.4991 10.939 0.40475zm-89.816-0.77892c1.1301-1.3617 0.8349-1.8816-1.4095-2.4829-3.7881-1.015-9.0002-0.99014-11.726 0.0559-1.788 0.68613-1.3848 1.1511 2.0853 2.4049 5.7837 2.0897 9.3284 2.0968 11.05 0.0221zm6.9705-6.0902c1.9427-2.7517 1.8765-2.8366-3.0606-3.929-5.3719-1.1886-12.635 0.17102-13.415 2.5112-0.4098 1.2294 7.1012 3.7062 12.373 4.0802 1.1641 0.0826 3.0101-1.1155 4.1022-2.6624zm86.383 1.7267c-0.369-0.59719-3.0462-1.4656-5.9492-1.9298-2.903-0.46421-5.8686-1.327-6.5902-1.9172-1.9224-1.5725-6.2139-2.0727-6.937-0.8086-0.3438 0.60091 3.0312 2.0603 7.5 3.243 9.5098 2.517 12.907 2.9176 11.976 1.4126zm1.8888-6.9003c-1.864-2.246-10.994-4.5279-17.856-4.4629l-5.3839 0.051 8.125 2.979c9.4546 3.4664 17.43 4.2226 15.115 1.433zm-80.88-4.7409c-0.3885-0.6286-3.1878-0.77081-6.2206-0.31601-3.497 0.52442-5.5141 0.35405-5.5141-0.46571 0-1.8146 6.9161-3.129 11.721-2.2276 2.5956 0.48694 4.892 0.11575 6.4648-1.0451 3.4389-2.538 1.3096-4.0886-7.0046-5.1006l-6.9438-0.84519-4.7585 5.8071c-2.6172 3.1939-4.5549 5.9621-4.3062 6.1515 0.2488 0.18945 3.2649 0.88738 6.7024 1.551 4.9335 0.95239 6.7045 0.83022 8.408-0.58 1.1869-0.98259 1.8402-2.3008 1.4517-2.9294zm70.505-2.9604c-4.3484-2.3603-18.474-5.9951-19.461-5.0078-1.7981 1.798 3.8163 4.8248 10.544 5.6844 11.88 1.518 12.828 1.446 8.9173-0.6766zm-10.132-7.6213c-1.2489-1.2489-13.69-5.3546-16.364-5.4004-4.4883-0.0769 1.5197 4.7709 6.5764 5.3065 8.3763 0.88717 10.602 0.90852 9.7878 0.0939zm-58.358-2.3162c-1.7331-2.0883-5.713-2.5052-6.8198-0.71436-0.6437 1.0415 1.8295 1.9398 6.6603 2.4191 1.3845 0.13738 1.4153-0.19158 0.1595-1.7048zm43.93-7.6598c-2.3075-1.007-5.9638-2.1274-8.125-2.4898l-3.9295-0.65891 2.9509 2.5918c2.0308 1.7836 4.5645 2.56 8.125 2.4898l5.1741-0.102-4.1955-1.8309zm-6.9655-6.5711c-0.3759-0.60823-2.2372-1.3994-4.1362-1.7581-1.8991-0.35875-4.8591-1.0836-6.5778-1.6109-2.7701-0.84976-2.9373-0.7296-1.4718 1.0581 1.6433 2.0045 4.4613 2.9209 9.983 3.2466 1.5875 0.0936 2.5787-0.32742 2.2028-0.93565zm-10.759-8.1592c-1.9875-1.9166-11.307-4.7995-12.302-3.8052-1.1697 1.1697 1.7939 2.9953 6.743 4.1538 7.0913 1.6599 7.608 1.6275 5.5587-0.34861zm-11.83-8.2349c-5.5461-1.4112-8.3722-1.4112-7.5 0 0.4249 0.6875 3.1299 1.1834 6.0112 1.1021 4.9483-0.1397 5.0309-0.2008 1.4888-1.1021zm-600.39 119.85c-1.5025-2.815-2.734-6.0494-2.7365-7.1875-0.004-1.8911-2.0508-7.8922-16.265-47.694-2.578-7.2188-7.514-19.594-10.969-27.5-8.6234-19.734-14.279-33.623-19.008-46.682l-4.0044-11.057 4.4732-6.4433c7.6139-10.967 12.392-15.307 19.978-18.145 11.866-4.4398 12.819-3.9573 15.704 7.9521 2.1255 8.776 15.379 39.542 17.368 40.316 0.90559 0.35249 2.2637 0.0237 3.018-0.73063 0.99536-0.99536 0.28324-3.7326-2.5965-9.9802-5.3722-11.655-9.8152-29.885-7.9432-32.591 2.5046-3.6206 11.5-20.306 11.5-21.331 0-1.4442 10.324-5.6216 21.732-8.7931 10.244-2.8481 11.948-2.4952 12 2.4852 0.0337 3.2462 18.141 51.509 25.692 68.48 1.0046 2.2577 1.8265 5.1033 1.8265 6.3236s0.82586 3.3106 1.8352 4.6451c1.0094 1.3345 1.8531 3.5935 1.875 5.02 0.0389 2.5336 2.8303 11.006 9.4418 28.656 5.8971 15.743 5.9882 16.382 3.681 25.796-1.1632 4.7464-1.8453 10.04-1.5158 11.763 0.45046 2.3565-0.21194 3.7054-2.6716 5.4405-2.8007 1.9756-17.221 8.42-20.657 9.2319-1.1133 0.26301-23.409-46.055-24.939-51.81-1.5503-5.8306-2.5753-6.479-7.6129-4.8165-5.8574 1.9331-6.4498 3.6304-4.0638 11.643 4.8387 16.25 8.9213 25.877 10.974 25.877 1.5528 0 2.249 1.5031 2.7504 5.9375 0.57959 5.1263 0.0895 6.9786-3.5874 13.558-2.3423 4.1911-4.2587 9.349-4.2587 11.462 0 3.5268-0.53824 4.0192-6.5625 6.004-3.6094 1.1891-9.4205 3.7656-12.914 5.7255-3.4931 1.9598-6.9044 3.5634-7.5806 3.5634-0.67624 0-2.4589-2.3032-3.9614-5.1181zm16.238-6.0281c5.2774-1.7758 9.9607-3.5996 10.407-4.0529 0.44672-0.45328-0.86128-4.672-2.9067-9.375s-6.0838-14.738-8.9742-22.301c-2.8904-7.5625-6.2982-14.665-7.5729-15.782-1.2747-1.1178-1.9846-2.3654-1.5775-2.7724 0.40705-0.40706 0.0245-2.4677-0.85007-4.5791-1.4288-3.4494-1.3125-4.1346 1.1457-6.7512 6.1288-6.5238 27.794-15.679 30.935-13.072 0.93574 0.77659 2.8944 5.416 4.3526 10.31 1.4582 4.8938 3.9565 11.429 5.5517 14.523 1.5952 3.0938 5.6939 11.649 9.1082 19.011l6.2078 13.386 9.4765-3.1862c5.2121-1.7524 9.4765-3.7348 9.4765-4.4054 0-2.4447-2.6348-6.0549-4.419-6.0549-1.0071 0-1.831-1.0692-1.831-2.3759s-3.8736-12.135-8.6079-24.062c-4.7344-11.928-10.383-26.72-12.552-32.871-2.1693-6.1516-4.6001-11.975-5.4018-12.941-0.80167-0.96596-2.3924-5.2141-3.5349-9.4403s-2.6839-9.3715-3.4252-11.434c-0.74135-2.0625-2.6428-8.3612-4.2255-13.997-2.0186-7.188-3.5377-10.42-5.0888-10.827-1.9183-0.50285-2.0105-1.0202-0.69606-3.905 1.2236-2.6854 1.1898-3.5264-0.17545-4.3702-2.0684-1.2784-3.291-0.89726-14.729 4.5913-4.9838 2.3915-10.609 4.7755-12.5 5.2977-3.181 0.87837-3.4162 1.3817-3.14 6.7218 0.30676 5.9315 4.461 19.545 7.3201 23.988 3.0887 4.7998 11.608 27.058 10.981 28.691-0.61282 1.597-22.598 11.934-25.382 11.934-0.761 0-2.2183-1.9688-3.2384-4.375s-2.7725-6.4844-3.8942-9.0625-2.766-7.2188-3.654-10.312c-1.783-6.2121-7.2385-19.599-8.5019-20.862-0.4425-0.4425-0.81222-2.2577-0.82161-4.0337-0.0521-9.8578-3.7642-11.608-14.537-6.8539-4.0266 1.777-7.5104 3.415-7.7417 3.6401-0.40361 0.39263 4.5636 12.985 14.046 35.61 2.4494 5.8438 4.4637 11.576 4.4763 12.739 0.0126 1.1626 0.53298 2.429 1.1564 2.8143 2.7906 1.7247 28.772 70.383 30.874 81.588 0.6268 3.3412 1.2372 4.0629 2.8332 3.35 1.1189-0.49978 6.3522-2.3616 11.63-4.1375zm19.756-23.182c-0.017-1.8236-1.0823-0.86157-3.75 3.3866-4.7287 7.5301-4.6958 9.0693 0.0745 3.4884 2.0346-2.3803 3.6885-5.474 3.6754-6.875zm-6.9039-1.0945c1.7477-2.9823 3.1777-6.4444 3.1777-7.6937 0-2.161-0.12989-2.1556-2.6708 0.10987-3.2021 2.855-6.0552 9.1143-5.1864 11.378 0.91395 2.3817 1.1925 2.1558 4.6796-3.7944zm-7.204-4.8902c-0.32451-0.85938 1.0245-4.4888 2.9979-8.0654 3.5296-6.3972 3.2732-9.881-0.41611-5.6551-3.7499 4.2953-5.61 15.283-2.5872 15.283 0.32749 0 0.32992-0.70313 0.005-1.5625zm6.6317-6.5625c0.89694-1.0807 1.0184-1.875 0.28679-1.875-0.69813 0-1.5931 0.84375-1.9888 1.875-0.39572 1.0312-0.52477 1.875-0.28679 1.875 0.23799 0 1.133-0.84375 1.9888-1.875zm55.974-7.7268c0.81929-3.906 1.2811-7.3103 1.0261-7.5652-0.98554-0.98553-5.9587 11.069-5.2878 12.818 1.362 3.5492 2.7828 1.798 4.2617-5.2524zm-61.254-2.972c1.6043-1.9675 2.3163-3.8154 1.6329-4.2378-0.66651-0.41192-2.6498 1.7047-4.4073 4.7036-3.1342 5.3482-4.4842 10.004-1.5594 5.378 0.81894-1.2952 2.7691-3.9249 4.3338-5.8438zm-3.6803-3.5384c3.8512-5.9434 5.1416-9.7654 2.8108-8.3248-1.3727 0.84839-7.6003 11.783-7.6003 13.344 0 1.9825 0.78627 1.1584 4.7895-5.0196zm60.974 2.0496 2.0781-4.0625-2.671 2.3812c-1.469 1.3097-2.671 3.1378-2.671 4.0625 0 2.7184 1.0454 1.9557 3.2639-2.3812zm-59.514-14.884c0-1.8232-3.1537 0.84816-6.4251 5.4423-1.4298 2.008-2.2161 4.4847-1.7826 5.6145 0.58779 1.5318 1.6762 0.60176 4.4917-3.8378 2.0438-3.2227 3.7159-6.4713 3.7159-7.2191zm57.567 3.814c2.2905-4.5374 3.1848-7.4126 2.2055-7.0903-3.2025 1.0539-9.3907 14.723-6.6654 14.723 0.33386 0 2.3408-3.4346 4.4599-7.6324zm4.9331-0.17366c0-0.69729-0.82908-0.56193-1.875 0.30611-1.0312 0.85586-1.875 2.1186-1.875 2.8061 0 0.69729 0.82908 0.56193 1.875-0.30611 1.0312-0.85586 1.875-2.1186 1.875-2.8061zm-70-2.1939c0.73587-1.375 1.0567-2.5 0.71296-2.5-0.34375 0-1.2271 1.125-1.963 2.5-0.73588 1.375-1.0567 2.5-0.71296 2.5 0.34375 0 1.2271-1.125 1.963-2.5zm60-2.7895c0-0.58393 1.1796-2.6572 2.6213-4.6072s2.4261-4.5518 2.1875-5.7818c-0.62932-3.2443-7.0423 6.3446-7.9984 11.96-0.69888 4.104-0.63123 4.2099 1.225 1.9175 1.0806-1.3345 1.9647-2.9042 1.9647-3.4881zm-2.0448-12.523c1.8701-3.2656 3.1155-5.9375 2.7675-5.9375-1.1474 0-6.9728 9.293-6.9728 11.124 0 2.1718-0.0281 2.2066 4.2052-5.186zm0.18945-16.962c-0.69044-1.7993-1.1315-1.6581-3.226 1.0326-1.3344 1.7143-2.7924 4.5231-3.2399 6.2418-0.44756 1.7188-1.3617 3.484-2.0314 3.9228-0.66973 0.43875-0.80415 1.4668-0.29873 2.2846 1.3446 2.1756 9.8197-10.814 8.796-13.482zm-6.4394 0.71194c1.8701-3.2656 3.1155-5.9375 2.7675-5.9375-1.1474 0-6.9728 9.293-6.9728 11.124 0 2.1718-0.0281 2.2066 4.2052-5.186zm-68.473-4.6252c1.7972-2.7158 3.0708-5.5162 2.8302-6.2231-0.4515-1.3268-5.2877 5.1-6.7526 8.9734-1.4209 3.7571 0.51363 2.4007 3.9224-2.7502zm14.268 1.1878c0.73587-1.375 1.0567-2.5 0.71296-2.5-0.34375 0-1.2271 1.125-1.963 2.5-0.73588 1.375-1.0567 2.5-0.71296 2.5 0.34375 0 1.2271-1.125 1.963-2.5zm-1.7071-8.2335c0.97216 0.37305 1.3158-0.0816 0.89348-1.1822-0.98458-2.5658-4.9278-0.19349-7.2984 4.3908-2.9327 5.6713-2.2311 6.1026 1.4686 0.9028 1.8461-2.5946 4.0675-4.4447 4.9364-4.1113zm49.684 6.2936c0.42686-1.1124 0.21731-1.6141-0.49126-1.1762-0.67963 0.42003-1.2357 1.293-1.2357 1.9399 0 1.798 0.89596 1.4018 1.727-0.7637zm-63.805-6.1272c4.6245-6.965 4.525-10.33-0.15761-5.3319-4.5997 4.91-7.4258 12.149-4.7429 12.149 0.20584 0 2.4111-3.0677 4.9006-6.8171zm73.288 0.8796c0.0726-2.8886-2.3792-1.5959-4.4057 2.3229l-2.0092 3.8854 3.1878-2.3229c1.7533-1.2776 3.2055-3.026 3.2271-3.8854zm-8.2241-3.1358c4.454-5.8701 5.7269-9.6767 3.2358-9.6767-1.8138 0-8.7225 11.25-8.7225 14.203 0 1.355 0.21897 2.2292 0.48662 1.9428 0.26764-0.28646 2.5176-3.1976 5-6.4692zm-68.612-3.4267c1.2444-1.375 1.7481-2.5 1.1194-2.5-0.62867 0-1.8456 1.125-2.7043 2.5s-1.3624 2.5-1.1194 2.5c0.24303 0 1.46-1.125 2.7043-2.5zm-0.36731-14.028c1.249-1.7226 1.247-2.4672-0.01-3.7243-1.2616-1.2616-2.1628-0.83742-4.5738 2.1531-3.7675 4.6731-4.3443 6.7736-2.9186 10.628 1.1132 3.0093 1.172 2.9774 3.5367-1.9216 1.3226-2.74 3.1072-5.9506 3.9658-7.1349zm60.992 10.282c0-0.68552 2.0476-3.5129 4.5503-6.283 5.6621-6.2673 4.8101-7.9777-0.93819-1.8833-4.4433 4.7107-6.852 9.4128-4.8218 9.4128 0.66535 0 1.2097-0.56088 1.2097-1.2464zm-56.25-3.7536c0-3.6042-1.9151-3.9917-4.4873-0.90802-1.2768 1.5307-1.5207 2.0799-0.54206 1.2205 2.6368-2.3154 4.1584-1.8972 3.4167 0.93922-0.35981 1.376-0.14417 2.1865 0.47921 1.8012 0.62339-0.38527 1.1334-1.7591 1.1334-3.053zm63.628-0.53839c-0.32885-0.32885-1.3426 0.64213-2.2528 2.1577-1.5812 2.6329-1.5545 2.6595 0.59791 0.59791 1.239-1.1868 1.9837-2.4268 1.6549-2.7556zm-1.1795-12.336c0.0281-0.54977-0.83304-2.7096-1.9138-4.7997-1.8632-3.6031-2.0855-3.6912-4.2865-1.6993-2.4258 2.1953-6.2484 9.3836-6.2484 11.75 0 2.518 1.9356 1.4165 4.1762-2.3764 1.3587-2.3001 3.2449-3.75 4.8784-3.75 2.586 0 2.5702 0.0997-0.54294 3.4375-1.7634 1.8906-3.918 4.8438-4.788 6.5625-0.99082 1.9573 0.33416 1.0232 3.546-2.5 2.8204-3.0938 5.151-6.0748 5.1792-6.6246zm-72.298-4.4171c0.60446-0.22917 1.099-1.3448 1.099-2.4792 0-1.4715-1.2686-0.79387-4.4275 2.365-3.0883 3.0883-4.1742 5.0876-3.5902 6.6096 0.70247 1.8306 1.2386 1.5168 3.3285-1.9484 1.3702-2.2717 2.9857-4.3179 3.5902-4.5471zm63.294-2.6557c3.6403-4.3848 3.9145-5.2435 2.5971-8.1348-1.8341-4.0253-3.4696-3.5425-6.5462 1.9325l-2.4021 4.2747 2.7518-2.8125c1.5135-1.5469 3.2592-2.8125 3.8794-2.8125 1.9507 0 2.5885 2.2082 0.83243 2.8821-1.856 0.71219-7.5053 9.6313-6.0777 9.5954 0.49244-0.0124 2.7268-2.2286 4.9653-4.9248zm-68.919-0.65007c1.0161-1.0161 2.6862-2.3168 3.7114-2.8906 1.927-1.0784 1.2197-5.262-0.88953-5.262-1.15 0-6.0846 7.3394-6.0932 9.0625-0.007 1.4606 1.2506 1.1108 3.2713-0.90992zm1.3465-13.947c-0.83328-0.83327-5.8725 6.4304-5.8725 8.4648 0 0.91283 1.4562-0.48337 3.2361-3.1027s2.9662-5.0323 2.6364-5.3621zm66.628-2.3271c0-0.34577-0.51662-0.62868-1.148-0.62868-1.6575 0-6.3562 7.9986-6.3282 10.773 0.0154 1.523 1.3376 0.26019 3.75-3.5814 2.0494-3.2636 3.7262-6.2167 3.7262-6.5625zm-74.933 3.5058c3.2874-3.5223 3.5892-4.1668 1.2743-2.7209-2.7321 1.7065-7.4242 7.3364-6.1143 7.3364 0.29274 0 2.4707-2.077 4.84-4.6155zm71.31-6.322c1.4492-1.5469 2.1114-2.8125 1.4715-2.8125-1.6252 0-6.0621 5.1201-7.0409 8.125-0.81434 2.5-0.81434 2.5 1.0601 0 1.0309-1.375 3.0601-3.7656 4.5093-5.3125zm-3.6359-2.615c0.89835-1.2664 2.2681-2.532 3.0438-2.8125 0.95457-0.34518 1.0449-1.4832 0.27949-3.5207l-1.131-3.0106-3.092 4.191c-3.1818 4.3128-3.9882 7.4553-1.9129 7.4553 0.64852 0 1.9141-1.0361 2.8125-2.3025zm-31.492-2.7511c0-0.71695 2.5679-4.0489 5.7065-7.4043 4.2148-4.5059 5.0282-5.9234 3.1118-5.4222-4.1093 1.0746-13.376 14.13-10.029 14.13 0.66592 0 1.2108-0.5866 1.2108-1.3036zm18.645-10.884c2.84-3.6094 4.5514-6.5625 3.803-6.5625-1.7795 0-14.948 13.178-14.948 14.958 0 2.6889 5.9491-1.793 11.145-8.3959zm10.32 5.1188c2.4665-2.2321 3.1687-7.1838 0.91207-6.4316-1.5 0.50001-5.2428 8.5004-3.9767 8.5004 0.42831 0 1.8074-0.93093 3.0647-2.0687zm-5.7002-3.2438 2.0781-4.0625-2.671 2.3812c-1.469 1.3097-2.671 3.1378-2.671 4.0625 0 2.7184 1.0454 1.9557 3.2639-2.3812zm409.57 157.15c-9.6258-2.5928-21.803-9.1351-36.762-19.751-14.116-10.017-18.764-14.784-24.253-24.868-8.9796-16.499-3.0735-53.13 11.727-72.733 6.6369-8.7905 22.889-21.74 37.686-30.028 9.232-5.1708 14.984-7.3868 25.846-9.9567 13.262-3.1378 14.69-3.2383 28.125-1.9796 19.774 1.8526 23.166 2.5026 25.179 4.8259 2.0215 2.333 3.5816 13.691 2.5731 18.733l-0.6795 3.3975-19.584-0.0185-19.584-0.0185-10.625 5.1185c-11.071 5.3332-28.225 18.889-30.814 24.35-4.2948 9.0584-5.7632 24.85-2.3106 24.85 1.0312 0 1.875-0.82396 1.875-1.831 0-3.015 3.8947-4.224 18.551-5.7586 10.42-1.091 15.44-1.1031 19.882-0.048 12.011 2.8531 37.916 11.919 40.237 14.081 2.3242 2.1654 2.3278 2.3602 0.1303 6.9546-1.2434 2.5997-3.4765 9.4512-4.9624 15.225-3.2823 12.756-8.2283 27.135-10.555 30.686-0.9431 1.4394-6.427 5.0471-12.186 8.0171-5.7593 2.97-11.596 6.4038-12.972 7.6306-6.133 5.472-14.25 6.4273-26.522 3.1216zm20.115-1.7688c4.1522-1.5787 5.5667-4.5264 6.1962-12.912 0.3017-4.019 1.6051-8.7291 3.0777-11.122 3.3725-5.4801 9.7-21.687 10.771-27.588 0.7561-4.1661 0.5664-4.6875-1.7059-4.6875-3.3771 0-3.2514-1.7574 0.2559-3.5776 1.5468-0.80282 1.9687-1.2481 0.9375-0.98954-1.0313 0.25859-3.8559-0.52263-6.2769-1.736-2.4211-1.2134-12.653-5.0153-22.739-8.4487l-18.337-6.2425-1.8024 5.2896c-1.1681 3.4282-1.4005 6.0076-0.6604 7.33 1.1291 2.0177 19.002 8.3748 23.545 8.3748 3.6328 0 4.105 4.0836 1.4004 12.112-1.3579 4.0309-2.7668 9.7999-3.1308 12.82-1.0238 8.4938-2.7907 8.8404-15.204 2.9831-7.3515-3.469-23.362-16.163-27.557-21.849-4.0598-5.5027-5.8365-14.892-5.2923-27.968 0.7395-17.767 7.7599-29.88 23.508-40.562 17.858-12.113 37.008-18.312 52.233-16.908l9.0625 0.83563v-6.4388c0-8.671-1.3612-10.695-8.8685-13.189-7.8772-2.6164-14.49-1.9029-30.808 3.3244-18.314 5.8666-33.16 15.302-47.199 29.997-8.1784 8.5609-10.607 12.062-13.332 19.218-4.9819 13.082-6.0845 17.654-7.2341 30-2.2885 24.578 4.7666 35.898 35.255 56.571 19.494 13.218 35.144 18.694 43.904 15.364zm17.682-11.077c-0.857-0.85696-8.1494 2.4081-8.1494 3.6487 0 0.59298 1.9617 0.14267 4.3593-1.0007s4.1031-2.335 3.7901-2.648zm7.1631-4.5501c3.0758-0.52228 4.6875-1.4671 4.6875-2.748 0-1.3611-0.6623-1.6856-2.1875-1.0719-1.2032 0.48411-4.8352 1.6839-8.0713 2.6662-6.7429 2.0468-9.4533 4.5838-3.1926 2.9884 2.242-0.57133 6.1857-1.397 8.7639-1.8347zm-2.1875-4.5892c6.8382-1.4884 10.316-3.5934 5.9365-3.5934-5.408 0-15.192 2.7255-16.792 4.6778-1.4509 1.77-1.2769 1.904 1.4809 1.1408 1.7187-0.47566 5.9375-1.477 9.375-2.2252zm10-7.6666c1.5766-1.5778-9.8762-0.23667-12.903 1.511-1.4426 0.83293 0.049 0.98132 4.7779 0.4754 3.7812-0.4045 7.4375-1.2984 8.125-1.9864zm-0.3125-4.0101c1.8906-0.39291 3.4375-1.5474 3.4375-2.5656 0-2.1982-4.3461-2.3728-12.469-0.50103-5.4734 1.2612-7.4731 2.7903-7.5116 5.7439-0.014 1.0936 1.6583 1.0304 6.5434-0.24693 3.6093-0.9438 8.1093-2.0375 10-2.4304zm-45.312-0.14592c0-2.2074-2.691-1.823-3.4636 0.49478-0.2721 0.8164 0.3959 1.4844 1.4844 1.4844s1.9792-0.89063 1.9792-1.9792zm1.25-8.1443c0-1.8243-1.9363-1.3047-5.4565 1.4642-4.7716 3.7534-4.0422 5.2667 1.0815 2.2436 2.4062-1.4197 4.375-3.0883 4.375-3.7079zm48.438 0.68212c0.8593-0.2641 1.5625-1.1339 1.5625-1.933 0-1.7964-6.3543-0.90393-12.507 1.7568l-4.3677 1.8887 6.875-0.61615c3.7812-0.33887 7.5781-0.83222 8.4375-1.0963zm-55.312-7.2316c2.0625-1.0873 3.2369-1.9995 2.6098-2.027-2.0885-0.0916-11.985 6.2835-11.985 7.7205 0 0.77836 1.2656 0.26054 2.8125-1.1507 1.5468-1.4112 4.5-3.4555 6.5625-4.5428zm50.938 2.5936c7.0144-1.3291 8.96-2.819 5.4435-4.1684-2.6738-1.026-11.42 1.722-14.7 4.6186-2.5808 2.2792-2.6322 2.4882-0.4308 1.75 1.375-0.46109 5.7343-1.4512 9.6875-2.2003zm-62.653-0.4989c0.9436-1.143 4.4818-3.3015 7.8628-4.7966s5.6061-3.0528 4.9447-3.4616c-2.4668-1.5246-16.717 6.3862-16.717 9.2802 0 1.7402 2.0776 1.1972 3.9094-1.022zm19.841-0.42176c0-0.6875-0.5293-1.25-1.1763-1.25-0.6469 0-1.5238 0.5625-1.9487 1.25s0.1043 1.25 1.1762 1.25c1.0718 0 1.9488-0.5625 1.9488-1.25zm-24.375-8.0582c1.8548-1.3817 2.0161-1.8654 0.625-1.8743-2.9534-0.0189-7.9809 4.3932-6.9348 6.0857 0.6861 1.1102 1.297 1.0001 2.3673-0.42642 0.7933-1.0575 2.5675-2.7608 3.9425-3.785zm25.625 4.3082c0-0.6875-1.2657-1.2105-2.8125-1.1621-2.6837 0.0839-2.698 0.13708-0.3125 1.1621 1.375 0.59086 2.6406 1.1138 2.8125 1.1621 0.1718 0.0483 0.3125-0.47464 0.3125-1.1621zm42.513-1.9947c6.635-0.88016 8.7823-2.2408 5.5149-3.4946-2.7753-1.065-12.645 1.6393-14.552 3.9872-1.3596 1.6738-1.2736 1.8478 0.5719 1.1562 1.1948-0.44768 5.0043-1.1896 8.4656-1.6488zm-61.897-1.741c0.4379-0.70857-0.064-0.91812-1.1762-0.49126-2.1655 0.83099-2.5617 1.727-0.7637 1.727 0.6469 0 1.5199-0.55606 1.9399-1.2357zm65.009-4.2014c4.9868-1.1546 6.3307-2.0146 6.6494-4.255 0.376-2.6434-0.041-2.8079-7.1137-2.8079-4.1323 0-7.8458 0.53815-8.2523 1.1959-0.4541 0.73475 1.6213 0.91632 5.3822 0.4709 3.5801-0.42401 6.4447-0.20185 6.9001 0.53512 0.475 0.76845-2.3854 1.599-7.331 2.1286-5.7657 0.61746-8.1097 1.3817-8.1097 2.644 0 2.0906 3.1269 2.1139 11.875 0.0884zm-73.125-0.81291c1.0312-0.66645 1.3125-1.2117 0.625-1.2117s-2.0938 0.54526-3.125 1.2117c-1.0313 0.66645-1.3125 1.2117-0.625 1.2117s2.0937-0.54526 3.125-1.2117zm-2.555-3.159c0.7177 0.44359 1.305-0.0704 1.305-1.1422 0-2.9653-2.9631-2.3318-6.3446 1.3565l-3.0304 3.3053 3.3825-2.163c1.8604-1.1897 3.9698-1.8001 4.6875-1.3565zm-0.5658-6.6285c-0.788-0.78797-8.1292 2.4059-8.1292 3.5367 0 0.52027 1.9526 0.0609 4.3391-1.0208 2.3866-1.0817 4.0921-2.2138 3.7901-2.5158zm79.996-0.41722c3.4095-1.5089-14.01-0.3453-18.125 1.2107-2.2173 0.83842-0.4018 0.9949 6.25 0.53867 5.1562-0.35365 10.5-1.1408 11.875-1.7493zm-81.333-3.665c2.5013-2.3341-0.2153-2.1383-3.7174 0.26796-3.4716 2.3852-3.5069 2.4886-0.5742 1.6812 1.7187-0.47324 3.65-1.3503 4.2916-1.9491zm-0.4121-7.7508c-1.0573-1.0573-2.4465-0.36438-5.4613 2.724l-4.0432 4.1419 5.4612-2.724c4.0721-2.0311 5.1005-3.0846 4.0433-4.1419zm55.91 5.2686c9.2692-0.0986 9.455-0.15904 5.6358-1.8325-3.1362-1.3742-5.517-1.4544-11.562-0.38946-4.1872 0.73755-7.613 1.9036-7.613 2.5912 0 0.68759 0.8897 0.90874 1.9772 0.49144 1.0875-0.41732 6.2906-0.80463 11.562-0.8607zm-7.3559-5.0546c1.3762-0.88981 0.029-1.0666-4.6286-0.6073-3.6134 0.35629-7.5509 1.2705-8.75 2.0315-1.6761 1.0638-0.6059 1.2042 4.6286 0.6073 3.7448-0.42703 7.6823-1.3412 8.75-2.0315zm-49.798-3.5934c1.3555 0 2.2717-1.3062 2.6304-3.75 0.387-2.6367 0.033-3.75-1.1924-3.75-1.1267 0-1.4833 0.81732-1.0089 2.3121 0.5727 1.8044-0.1618 2.569-3.3446 3.4818-2.3729 0.68051-4.2638 2.1313-4.5214 3.469-0.416 2.1605-0.2677 2.1767 2.4571 0.26818 1.5949-1.1171 3.8358-2.0311 4.9798-2.0311zm34.239 2.5c2.2788-0.97924 2.2235-1.0743-0.625-1.0743-1.7188 0-4.25 0.48343-5.625 1.0743-2.2788 0.97924-2.2235 1.0743 0.625 1.0743 1.7187 0 4.25-0.48343 5.625-1.0743zm-30.938-13.19c0.8593-0.26475 1.5625-1.3135 1.5625-2.3306 0-1.5037-0.6871-1.6097-3.6775-0.56724-2.0226 0.70508-4.3708 2.1174-5.2183 3.1386-1.3215 1.5924-1.0205 1.7416 2.115 1.0486 2.0107-0.4444 4.3589-1.0246 5.2183-1.2894zm4.8062-9.4917c2.3504-2.6472 2.3489-2.6639-0.1187-1.2918-1.375 0.76451-3.3438 1.9628-4.375 2.6627-1.6435 1.1156-1.6289 1.2751 0.1187 1.2919 1.0966 0.0105 3.0654-1.1877 4.375-2.6628zm-2.5857-4.5767c-0.3848-0.38486-1.3934-0.00079-2.2414 0.85348-1.2253 1.2345-1.0817 1.3781 0.6998 0.69974 1.2328-0.46941 1.9265-1.1684 1.5416-1.5532zm5-2.5c-0.3848-0.38486-1.3934-0.00079-2.2414 0.85348-1.2253 1.2345-1.0817 1.3781 0.6998 0.69974 1.2328-0.46941 1.9265-1.1684 1.5416-1.5532zm5.592-1.4914c1.0312-0.66645 1.3125-1.2117 0.625-1.2117s-2.0938 0.54527-3.125 1.2117c-1.0313 0.66644-1.3125 1.2117-0.625 1.2117s2.0937-0.54527 3.125-1.2117zm71.25-23.75c0-0.6875-2.1094-1.2105-4.6875-1.1622-3.7603 0.0705-4.193 0.30037-2.1875 1.1622 3.4736 1.4927 6.875 1.4927 6.875 0zm-1.5625-5.8617c-1.2032-0.31441-3.1719-0.31441-4.375 0-1.2032 0.31441-0.2188 0.57165 2.1875 0.57165 2.4062 0 3.3906-0.25724 2.1875-0.57165zm1.3289-6.3258c-0.4531-2.3773-4.9421-3.5336-8.2948-2.1366-1.7134 0.71393-1.4112 1.1786 1.6534 2.5425 5.1599 2.2963 7.1334 2.1757 6.6414-0.40587zm-401.75 130.74c-0.49083-0.79417-0.8017-5.1536-0.69085-9.6875 0.11087-4.534-0.35241-10.494-1.0295-13.244-0.67707-2.75-1.8322-14.281-2.5669-25.625-0.73473-11.344-2.9756-29.906-4.9798-41.25s-4.3157-27.375-5.1367-35.625c-0.82099-8.25-1.9408-15.508-2.4885-16.129-1.7338-1.9656 1.0539-5.2804 12.713-15.117 12.18-10.276 15.148-11.665 38.674-18.101 27.44-7.5063 51.321-9.7833 55.395-5.282 1.1179 1.2352 2.8904 6.1571 3.939 10.938 5.7915 26.403 8.1279 35.615 10.606 41.817 4.1706 10.437 5.0599 13.882 5.0599 19.598 0 2.8817 0.52922 6.6314 1.1761 8.3327 0.64684 1.7013 2.063 7.5036 3.147 12.894 1.084 5.3903 2.497 10.926 3.14 12.301 3.2208 6.8874 3.7602 12.32 1.568 15.791-1.1858 1.8779-6.7869 10.676-12.447 19.551-5.66 8.8752-10.742 18.31-11.294 20.966l-1.0034 4.8292-10.581 1.5658c-5.8194 0.8612-14.04 1.5897-18.269 1.6188l-7.6878 0.053-1.3151-5.9375c-0.72329-3.2656-1.6678-7.7656-2.099-10-0.54569-2.8279-1.4831-4.0625-3.0846-4.0625-2.9646 0-14.162 12.552-17.464 19.576-1.462 3.1102-3.4799 5.505-4.7306 5.6142-6.36 0.55519-20.639 3.5836-23.102 4.8997-2.8821 1.5402-4.3698 1.4626-5.4493-0.28401zm16.995-6.6742c6.3067-1.1068 11.202-2.6485 12.046-3.7933 1.7705-2.4034-0.0362-10.737-6.5439-30.184-1.651-4.9337-3.0018-10.963-3.0018-13.397v-4.4269l10.377-3.1652c5.7074-1.7408 12.998-3.1652 16.202-3.1652 5.6849 0 5.8536 0.11262 7.0211 4.6875 0.65794 2.5781 1.2116 6.375 1.2302 8.4375 0.10075 11.115 0.54801 14.768 3.1378 25.625l2.8325 11.875 10.968-0.19566c6.0327-0.10763 12.884-0.55498 15.225-0.99414 3.7132-0.69661 4.2563-1.2747 4.2563-4.5313 0-2.053-1.068-6.9494-2.3732-10.881-1.3053-3.9314-3.0946-10.523-3.9763-14.648s-2.6262-9.9373-3.8768-12.916c-1.2505-2.9789-2.2737-8.3896-2.2737-12.024 0-3.6342-0.80805-11.322-1.7957-17.084-0.98762-5.7619-2.6919-18.351-3.7872-27.976-2.3028-20.236-6.5168-39.3-8.8879-40.21-0.90212-0.34618-5.5913-0.0164-10.42 0.73288-4.8291 0.74927-14.282 1.9324-21.007 2.6291-6.7248 0.69676-18.414 2.6918-25.977 4.4334-7.5625 1.7416-15.086 3.4475-16.718 3.7907-2.8858 0.60687-2.9456 0.87286-2.1633 9.6238 1.3289 14.866 3.3775 30.516 6.4139 49 3.3394 20.328 4.4564 29.993 5.0269 43.495 0.36243 8.5771 1.6622 19.966 3.7738 33.067 0.75661 4.6942 0.37852 4.6361 14.292 2.1944zm-2.8566-75.79c-3.1626-10.189-5.8934-29.839-5.8934-42.41 0-5.6079 0.37901-6.4498 3.8548-8.5636 4.8181-2.9301 24.594-7.2158 26.008-5.6363 0.56238 0.62829 1.6654 8.6764 2.4511 17.885 0.78575 9.2083 2.0412 17.481 2.79 18.383 0.74873 0.90217 0.99165 2.2384 0.53984 2.9695-1.0854 1.7562 1.6832 10.03 3.3563 10.03 0.83657 0 0.78239 0.63106-0.15076 1.7554-0.80129 0.96549-1.1107 3.1346-0.68765 4.8203 0.49415 1.9689 0.0729 3.7612-1.178 5.0121-2.0817 2.0817-11.104 4.4051-21.475 5.5306l-6.3662 0.69084-3.2491-10.467zm25.176-10.467c0.067-1.8766-1.6137-0.69327-6.7402 4.7458-3.7562 3.9852-6.8294 7.8669-6.8294 8.626 0 2.4794 13.478-10.802 13.57-13.372zm-2.3196 10c1.6147-1.7188 2.6545-3.125 2.3108-3.125-0.34375 0-1.9461 1.4062-3.5608 3.125s-2.6545 3.125-2.3108 3.125c0.34375 0 1.9461-1.4062 3.5608-3.125zm-16.082-4.271c-2.8731-1.7757-0.4826-5.7268 7.9967-13.217 4.4468-3.9282 8.085-7.9482 8.085-8.9334 0-3.0728-4.3748 0.19538-10.705 7.997-6.5066 8.0191-8.045 9.0972-8.045 5.6378 0-1.3036 3.687-5.9911 8.1934-10.417 9.5411-9.37 11.085-11.699 9.5608-14.423-0.89294-1.5956-2.6727-0.24655-9.4016 7.1261-4.5651 5.0019-8.6768 8.7177-9.1371 8.2574-1.2765-1.2765 5.5368-10.428 12.273-16.484 3.3066-2.9729 6.012-6.0777 6.012-6.8996 0-2.5808-6.8883 2.6615-13.647 10.386-7.2934 8.3354-7.753 11.089-4.3496 26.053 1.4986 6.5886 2.3616 8.4477 3.427 7.3822 1.0655-1.0655 0.99956-1.6865-0.26171-2.466zm17.331-14.167c0.001-1.9519-1.9498-0.77062-7.1396 4.3228-7.3624 7.2257-6.7579 8.5825 0.88958 1.9966 3.4372-2.96 6.2497-5.8037 6.25-6.3194zm-16.3-21.284c3.3141-3.6261 7.4914-7.3774 9.2829-8.3362 2.8136-1.5058 4.6065-5.0708 2.5502-5.0708-3.7872 0-19.293 14.282-19.293 17.77 0 3.3478 0.88669 2.8292 7.4597-4.3627zm-0.4362-10.55c-1.2959-1.2959-7.0235 2.845-7.0235 5.0777 0 2.3108 0.32809 2.2189 3.737-1.047 2.0553-1.9691 3.5343-3.7829 3.2865-4.0307zm19.491 106.52c3.441-3.0938 7.0393-5.625 7.9962-5.625 1.9237 0 2.4044-4.4417 0.60131-5.5561-0.62618-0.387-4.078 2.9905-7.6707 7.5055-4.3492 5.4657-6.9494 7.7919-7.7806 6.9608-1.4463-1.4463 3.8386-8.6337 11.315-15.388 5.7331-5.1795 5.7297-8.9288-0.004-4.1044-2.0945 1.7624-6.3028 6.2345-9.3517 9.938-4.7536 5.7742-5.3467 7.1012-4.1625 9.3139 0.75952 1.4192 1.7004 2.5803 2.0908 2.5803 0.39042 0 3.5252-2.5312 6.9662-5.625zm60.665-10.312c3.5905-6.0156 8.0011-13.328 9.8014-16.25 1.8003-2.9219 2.9951-5.3125 2.6552-5.3125-0.33992 0-4.9297 5.625-10.2 12.5-5.2698 6.875-10.344 12.5-11.275 12.5-1.3633 0-1.4176 0.73186-0.27839 3.75 0.77852 2.0625 1.7199 3.75 2.092 3.75 0.37207 0 3.6142-4.9219 7.2047-10.938zm-55.515-9.8945c3.1679-2.7318 4.3408-4.603 3.788-6.0434-0.6414-1.6714-2.4802-0.41981-9.2444 6.2926-4.6441 4.6085-9.1485 8.1441-10.01 7.857-0.91315-0.30437 2.4194-4.6124 7.9931-10.333 5.2576-5.3958 9.5592-10.009 9.5592-10.251 0-0.24225-0.75939-0.44045-1.6875-0.44045-0.92815 0-4.684 3.5156-8.3462 7.8125-3.6623 4.2969-7.7556 8.7126-9.0962 9.8126-2.201 1.806-2.2847 2.4633-0.8624 6.7728l1.5751 4.7727 5.8712-6.1478c3.2292-3.3813 7.9361-7.9284 10.46-10.105zm57.027-2.896c8.3899-9.6272 11.322-13.865 11.052-15.976-0.20212-1.5803-0.93-2.9732-1.6175-3.0953-1.0968-0.19479-11.116 11.583-18.935 22.258-2.028 2.7689-3.0484 3.319-4.1689 2.2474-1.1298-1.0805 1.2498-4.5849 9.9788-14.696 6.3043-7.3023 11.977-12.959 12.606-12.57 0.62922 0.38888 1.144-0.1367 1.144-1.168 0-3.7237-2.3206-3.1578-7.2452 1.7668-7.6648 7.6648-19.006 21.902-18.998 23.85 0.0139 3.4466 2.6774 11.257 3.709 10.876 0.58067-0.21448 6.1944-6.2863 12.475-13.493zm-70.145-1.272c7.9019-8.977 5.588-10.269-2.7976-1.5625-5.2713 5.4732-7.1629 9.0625-4.7761 9.0625 0.53457 0 3.9427-3.375 7.5737-7.5zm-5.2597-4.6307c-1.0303-1.0303-4.536 0.62006-4.536 2.1354 0 0.92445 0.79932 0.90542 2.6071-0.062 1.4339-0.76739 2.3019-1.7004 1.9289-2.0734zm82.394-27.469-0.75454-3.0063-5.5105 4.5154c-3.0308 2.4835-8.204 7.7106-11.496 11.616-3.2921 3.9052-6.702 7.5501-7.5774 8.0999-1.9594 1.2306-2.0514 3.6656-0.20833 5.5087 1.0111 1.0111 4.7359-1.9951 13.842-11.172 10.58-10.661 12.345-13.009 11.705-15.562zm-4.7427-4.1086c3.2332-1.5856 3.392-3.1004 1.2783-12.192-0.87841-3.7783-2.2262-6.5991-3.1529-6.5991-4.0972 0-22.813 21.115-22.813 25.737 0 1.3376 3.6081-1.353 9.9863-7.4466 14.038-13.412 17.743-12.704 4.3837 0.83753-12.555 12.726-14.87 16.077-13.685 19.812 0.81969 2.5826 1.723 1.9298 11.041-7.9785 5.5816-5.9352 11.414-11.412 12.961-12.171zm-18.736-8.8234c3.7489-4.1427 9.291-9.2349 12.316-11.316 4.7588-3.2741 5.3218-4.1164 4.1789-6.2519-1.2814-2.3943-1.4348-2.4016-5.137-0.24649-7.424 4.3215-23.178 25.346-18.992 25.346 0.44977 0 3.885-3.3894 7.6339-7.5321zm7.5778-19.03c2.3728-1.8906 4.7994-3.4375 5.3923-3.4375 0.59298 0 1.0781-1.4062 1.0781-3.125 0-1.9512-0.70772-3.125-1.8841-3.125-2.6328 0-21.866 19.683-21.866 22.377 0 4.2336 1.525 3.6468 7.2253-2.7802 3.157-3.5595 7.6814-8.0187 10.054-9.9093zm3.006-16.403c-0.1867-1.3778-0.5538-2.7194-0.81578-2.9814-0.99281-0.99281-5.3129 2.7612-11.336 9.8507-3.4326 4.0404-6.667 7.3462-7.1875 7.3462-3.9008 0 5.4061-12.745 13.61-18.637 2.3065-1.6567 4.1937-4.0942 4.1937-5.4167 0-3.3809-1.014-2.7324-11.809 7.5519l-9.576 9.123 0.78583 5.877c0.4322 3.2323 1.0286 6.6352 1.3253 7.562 0.85643 2.675 21.23-17.175 20.809-20.276zm-4.0356-16.695c0-3.2117-2.9818-1.3998-10.773 6.5463-11.226 11.45-10.202 14.04 1.398 3.534 5.1562-4.67 9.375-9.2061 9.375-10.08zm-4.0625-3.4098c2.9655-0.89418 4.0211-5.6848 1.25-5.6728-2.7656 0.012-17.847 15.632-17.388 18.009 0.3278 1.6967 1.8978 0.63604 6.875-4.6446 3.5476-3.7639 7.7158-7.2251 9.2627-7.6915zm-0.4657-9.0965c1.8095-0.95278 2.0616-1.7453 1.1014-3.4612-1.0936-1.9542-2.3225-1.1247-10.08 6.8045-5.2466 5.3623-8.5647 9.7345-8.1694 10.765 0.45658 1.1898 2.8857-0.55928 7.7337-5.5687 3.8874-4.0169 8.1241-7.8595 9.4148-8.5391zm-83.597 2.5661 5-4.3939-5.2836 2.8363c-2.906 1.56-6.8435 4.5118-8.75 6.5597l-3.4664 3.7234 3.75-2.1658c2.0625-1.1912 6-4.143 8.75-6.5597zm4.7276 4.0331c2.2123-0.99978 6.5536-4.1464 9.6474-6.9926 3.618-3.3284 4.51-4.6171 2.5-3.6119-4.4961 2.2486-18.75 11.302-18.75 11.909 0 1.0069 2.643 0.48462 6.6026-1.3048zm70.99-7.9757c7.203-7.0921 8.8524-10.416 6.0333-12.158-1.7231-1.065-16.126 13.017-16.126 15.767 0 1.9059 1.0505 3.685 2.1759 3.685 0.28007 0 3.8426-3.282 7.9167-7.2934zm-54.21 1.9809c2.6778-2.2344 6.2467-5.0564 7.9308-6.2713 1.8384-1.3261 0.56437-1.0009-3.188 0.81376-6.0901 2.9452-13.66 9.52-10.961 9.52 0.7423 0 3.5406-1.8281 6.2184-4.0625zm10.993-2.9282 3.75-3.2743-4.1464 2.32c-2.2805 1.276-5.093 3.3862-6.25 4.6894-2.0013 2.2541-1.982 2.3006 0.39636 0.95434 1.375-0.77827 4.1875-2.8885 6.25-4.6894zm10.252 1.4875c1.963-1.6518 7.7313-5.8705 12.818-9.375 10.087-6.9486 9.9588-8.2608-0.29981-3.0763-6.2739 3.1707-22.146 13.878-22.146 14.939 0 1.742 6.6393 0.0263 9.6273-2.4879zm13.498-4.1217 6.25-5.7628-6.875 4.7858c-8.9272 6.2145-9.638 6.8639-7.4375 6.7958 0.99688-0.0308 4.625-2.6493 8.0625-5.8188zm15.625-7.4705c0-0.84072-5.9108 3.0187-11.357 7.4157-3.5378 2.8561-3.947 3.6537-2.3927 4.6635 1.4427 0.93729 3.2441-0.23994 7.8125-5.1055 3.2656-3.478 5.9375-6.6162 5.9375-6.9738zm125.62 160.72c-5.5-0.57477-10.999-1.2031-12.221-1.3962-1.5848-0.25061-3.3942-3.7524-6.3175-12.226-7.3155-21.206-9.7225-23.738-10.939-11.505-0.85401 8.5899-1.6331 10.203-4.5867 9.4987-3.4154-0.81495-11.975 4.7091-12.807 8.2658-0.62542 2.6713-1.5244 3.1659-6.3041 3.4683-8.769 0.55481-26.858-1.4998-26.574-3.0182 0.13793-0.73657 0.51145-7.4694 0.83003-14.962 0.31858-7.4924 1.4349-22.06 2.4808-32.373 1.0459-10.312 2.8148-30.562 3.9308-45 1.1161-14.438 2.84-31.49 3.8309-37.894 0.9909-6.4042 1.8016-14.407 1.8016-17.784 0-7.2242 0.66851-7.8175 15.466-13.725 9.8043-3.9141 9.8752-3.9225 19.136-2.263l9.2952 1.6656 3.0594 7.5c1.6827 4.125 3.6456 11.156 4.3621 15.625 1.8465 11.517 4.8146 22.658 6.8985 25.894 0.98063 1.5227 1.783 4.087 1.783 5.6986 0 1.6115 0.82586 4.022 1.8352 5.3565 1.0094 1.3345 1.8531 3.2247 1.875 4.2003 0.0831 3.7101 6.9253 20.101 8.3909 20.101 1.7732 0 2.5078-3.9401 3.496-18.75 0.64031-9.5969 1.6641-17.152 5.7462-42.401 0.71366-4.4144 1.802-8.9688 2.4186-10.121 0.6432-1.2018 7.1716-4.1375 15.317-6.8878l14.196-4.7932 9.9251 2.4179c7.4726 1.8204 9.8073 2.8802 9.4486 4.289-1.945 7.6373-2.841 16.243-3.9653 38.086-1.4434 28.041-2.4611 39.075-5.3639 58.16-2.0876 13.725-3.5183 27.543-3.9477 38.125-0.1395 3.4375-0.3364 8.0781-0.4376 10.312-0.1321 2.9153-0.7831 4.0625-2.3055 4.0625-3.1945 0-20.379 10.201-20.379 12.098 0 1.9025-12.664 2.0208-29.375 0.27452zm27.215-8.9349c2.6757-9.0879 5.454-39.359 3.8555-42.009-0.73491-1.2184-0.82748-3.8329-0.22762-6.4286 0.55609-2.4062 1.3055-11.125 1.6654-19.375 0.35989-8.25 0.92073-16.406 1.2463-18.125 0.32557-1.7188 1.1692-13.25 1.8746-25.625 0.70547-12.375 1.5997-24.578 1.9872-27.117 0.59064-3.8707 0.33504-4.6367-1.581-4.7378-1.257-0.0663-5.7595-0.42708-10.005-0.80167l-7.72-0.68106-0.71256 6.0439c-0.39192 3.3241-1.5346 11.669-2.5393 18.544s-2.1562 16.719-2.5589 21.875c-1.0131 12.973-2.962 31.444-4.4183 41.875-0.67186 4.8125-1.4759 11.844-1.7867 15.625-0.3108 3.7812-1.4076 9.125-2.4374 11.875s-1.897 6.2324-1.9272 7.7387c-0.087 4.3453-2.6909 4.8879-5.6497 1.1772-2.5087-3.1462-8.1385-23.011-10.062-35.503-0.45192-2.9355-1.7063-6.2219-2.7874-7.303-1.0812-1.0812-2.0852-3.4606-2.2312-5.2877-0.27196-3.4032-5.2684-18.899-9.3335-28.947-1.2516-3.0938-3.2055-9.2812-4.3418-13.75-4.15-16.32-11.095-36.915-12.962-38.438-2.0747-1.6923-13.635-2.1141-16.039-0.58522-1.9094 1.2143-4.9736 23.201-6.6577 47.773-0.73038 10.656-2.1151 26.406-3.0772 35-1.8435 16.467-4.1328 45.077-4.7009 58.75l-0.3376 8.125 12.5 0.82067c6.875 0.45137 12.66 0.6667 12.855 0.47853 0.91676-0.88405 1.7961-27.666 1.7048-51.924-0.10425-27.721 0.68425-37.588 3.0669-38.378 0.75711-0.25104 2.3727 2.2344 3.5901 5.5233 1.2175 3.2888 3.045 6.6454 4.0611 7.459 1.0161 0.81363 1.5176 2.0133 1.1142 2.6658-0.80577 1.3038 3.4755 14.686 5.4655 17.084 0.68517 0.82558 0.91855 1.8283 0.51861 2.2282-0.39994 0.39994 2.629 10.192 6.731 21.76s8.4146 23.979 9.5836 27.581c1.169 3.6013 2.7856 6.9626 3.5924 7.4697 1.4319 0.89987 23.235 3.553 32.233 3.9222 4.4126 0.18108 4.5608 0.0346 6.4486-6.3772zm5.91-2.1875c0-0.6875-0.24805-1.25-0.55123-1.25-0.30317 0-0.89887 0.5625-1.3238 1.25-0.4249 0.6875-0.17685 1.25 0.55123 1.25 0.72807 0 1.3238-0.5625 1.3238-1.25zm-66.87-10.07c-1.363-2.2054-12.972 4.1265-13.053 7.1198-0.0219 0.80107 3.0224-0.21603 6.8475-2.2878 3.7877-2.0515 6.5803-4.2259 6.2058-4.832zm81.569 6.7973c-0.4153-0.41537-1.4935-0.45977-2.3958-0.0986-0.99716 0.39903-0.70097 0.69523 0.75521 0.7552 1.3177 0.0542 2.056-0.24116 1.6406-0.65652zm-1.0156-3.7891c1.7154-1.5008-2.3532-0.107-4.3444 1.4883-2.2879 1.833-2.248 1.859 0.69859 0.45568 1.7188-0.81855 3.3593-1.6933 3.6458-1.944zm-1.1458-6.1686c0-0.34375-1.125-0.0229-2.5 0.71296-1.375 0.73587-2.5 1.6192-2.5 1.963 0 0.34375 1.125 0.0229 2.5-0.71296 1.375-0.73588 2.5-1.6192 2.5-1.963zm-84.991-2.6576c6.2675-3.385 7.8769-5.3794 4.341-5.3794-2.4984 0-11.85 5.9311-11.85 7.5157 0 1.7728 0.57332 1.6097 7.5092-2.1363zm4.9546 2.1694c3.0557-1.9325 0.89054-2.4733-2.4657-0.61584-1.8106 1.002-2.3351 1.739-1.2481 1.7536 1.0312 0.0139 2.7025-0.49815 3.7138-1.1377zm73.957-7.636c2.7892-1.423 4.7901-2.8684 4.4463-3.2122-0.67318-0.67319-10.867 4.2045-10.867 5.1998 0 1.0442 1.2156 0.66795 6.4209-1.9876zm9.8291-1.1628c1.0312-0.66645 1.3125-1.2117 0.625-1.2117s-2.0938 0.54526-3.125 1.2117c-1.0313 0.66645-1.3125 1.2117-0.625 1.2117s2.0937-0.54526 3.125-1.2117zm-85-5.1035c2.4062-1.2573 3.5372-2.3109 2.5131-2.3412-2.6612-0.079-12.503 4.1237-12.508 5.3415-0.006 1.2757 4.2659-0.006 9.9953-3.0002zm36.25-1.181c0-0.62535-0.84052-0.81446-1.8678-0.42025s-1.5509 1.2295-1.1636 1.8562c0.81007 1.3107 3.0314 0.25852 3.0314-1.4359zm46.955 1.3508c1.4618 1.2132 1.7951 1.0093 1.7951-1.0982 0-2.3331-0.3696-2.4592-3.7523-1.28-2.0638 0.71943-4.1004 1.8713-4.5258 2.5597-0.42545 0.6884 0.4553 0.59397 1.9572-0.20983 2.0923-1.1198 3.1505-1.1131 4.5259 0.0284zm-81.989-7.3268c-1.0716-0.40157-11.216 4.4203-11.216 5.3313 0 0.28596 2.755-0.70985 6.1222-2.2129 3.3672-1.5031 5.6592-2.9063 5.0934-3.1184zm83.253 0.0626c-0.5655-0.56553-10.719 4.4853-10.719 5.3321 0 0.32084 2.5189-0.64044 5.5976-2.1362 3.0787-1.4957 5.3832-2.9339 5.1212-3.196zm-5.5589-0.48808c4.0616-2.1648 7.1481-4.1727 6.8588-4.462-0.8269-0.82691-13.027 4.7262-14.632 6.66-2.1963 2.6464-0.32036 2.116 7.7735-2.198zm-76.781-4.3522c-0.63846-0.63845-8.6132 2.0957-10.566 3.6226-3.887 3.0392-0.96758 3.1286 4.7383 0.14506 3.4654-1.812 6.0879-3.5075 5.8277-3.7677zm34.747 5.7882c0.4249-0.6875-0.0713-1.25-1.1025-1.25s-2.2226 0.5625-2.6475 1.25 0.0713 1.25 1.1025 1.25 2.2226-0.5625 2.6475-1.25zm0.625-7.0756c0-0.92089-0.73624-1.6744-1.6361-1.6744-2.645 0-6.3201 3.2506-5.3852 4.7632 1.1414 1.8468 7.0213-0.74002 7.0213-3.0889zm48.75-3.1394c0-0.59719-2.25 0.062-5 1.465s-5 2.7754-5 3.0498c0 0.27447 2.25-0.38479 5-1.465s5-2.4527 5-3.0498zm-88.581 2.1834c3.2765-1.3878 3.7475-1.9603 2.1313-2.5904-1.8688-0.72859-9.8003 2.3299-9.8003 3.7791 0 1.1259 3.4769 0.58699 7.669-1.1887zm80.144-1.6995c3.2656-1.5573 5.9375-3.0645 5.9375-3.3493 0-1.1996-11.235 3.4316-12.735 5.2498-1.8042 2.1862-1.7266 2.1645 6.7976-1.9004zm-39.75-3.0064c1.6441-1.4019-0.91158-1.2932-4.8561 0.20647-1.7635 0.67049-3.2064 1.7834-3.2064 2.4732 0 1.2609 5.6392-0.61332 8.0625-2.6797zm-42.496 0.0368c1.7511-0.79786 3.1838-1.9608 3.1838-2.5842 0-1.4958-5.1305 0.0829-7.4554 2.294-2.2755 2.1642-0.15737 2.3082 4.2716 0.29021zm88.842-3.5494c1.0939 0 1.6413 0.5625 1.2164 1.25s-0.1876 1.25 0.5274 1.25c1.3179 0 3.3454-5.9188 2.3638-6.9005-0.5832-0.58316-12.122 5.2182-14.141 7.11-0.6875 0.64398 0.84131 0.29778 3.3974-0.76933 2.556-1.0671 5.5424-1.9402 6.6363-1.9402zm-3.7836-3.6469c6.0526-3.2848 8.8731-5.5741 9.1494-7.4259 0.4494-3.0121-1.1473-3.38-5.1691-1.1913l-2.7303 1.4859 3.125 0.84205c2.9169 0.78598 2.9585 0.90291 0.625 1.7563-1.375 0.50282-3.9131 1.4368-5.6403 2.0756-3.5584 1.316-11.273 7.2798-9.3598 7.2353 0.6875-0.016 5.1875-2.166 10-4.7779zm-86.217 1.6352c3.5856-2.3494 2.9808-4.2383-1.357-4.2383-2.4213 0-3.0512 0.64515-3.0512 3.125 0 3.6786 0.35594 3.7684 4.4082 1.1133zm39.933-0.73735c7.1051-3.4519 8.0315-7.026 1.0668-4.116-5.1844 2.1662-7.9084 4.153-7.9084 5.7681 0 1.5504 0.49675 1.4304 6.8416-1.6521zm-0.59156-6.0009c1.6159-1.0442 1.5829-1.2144-0.23873-1.2309-1.1626-0.0105-2.4614 0.54336-2.8863 1.2309-0.97772 1.582 0.67704 1.582 3.125 0zm55.739-8.4281c-0.3345-0.33447-10.179 3.9014-16.051 6.9066-0.51563 0.26387-0.9375-0.0512-0.9375-0.70025 0-1.4742 14.004-9.0283 16.737-9.0283 1.1069 0 2.0126-0.5625 2.0126-1.25 0-2.2038-4.8987-1.343-11.604 2.0389-7.2258 3.6444-8.3488 4.8249-8.3768 8.8056-0.0185 2.6292 0.29093 2.569 9.3141-1.8126 5.1333-2.4927 9.1407-4.7247 8.9054-4.96zm-94.037 6.5531c-0.39574-1.0312-1.5031-1.875-2.4608-1.875-2.0179 0-2.361-2.0851-0.448-2.7228 0.78654-0.26218 0.55723-1.405-0.58525-2.9167-1.7576-2.3256-1.8811-2.1034-1.9183 3.4519-0.0368 5.4906 0.1925 5.9375 3.046 5.9375 2.2294 0 2.8861-0.52038 2.3663-1.875zm37.193-1.5434c6.2545-2.2214 7.4948-3.6268 4.2871-4.8578-1.9359-0.74287-11.932 4.289-11.932 6.0063 0 1.4205 0.71278 1.3134 7.6447-1.1486zm-5.8292-7.7354c0.39221-0.63461 2.3942-1.523 4.4488-1.9743 4.0176-0.88242 4.464-1.9253 2.4417-5.704-1.5693-2.9322-3.8607-3.0484-8.8843-0.45065-4.7998 2.482-4.0756 3.3613 1.4606 1.7735 2.7025-0.77506 4.6762-0.78218 5.4387-0.0196 1.2592 1.2591 0.39143 1.7202-5.7836 3.0733-1.8906 0.41427-3.4375 1.5862-3.4375 2.6044 0 2.0291 3.1754 2.5422 4.3156 0.69736zm50.133-0.79013c2.2879-1.833 2.248-1.859-0.69859-0.45568-3.8263 1.8223-4.5354 2.3996-2.9472 2.3996 0.67069 0 2.3113-0.87478 3.6458-1.944zm12.529-7.502c2.1039 2.8773 2.5235 1.8327 3.6113-8.9915 0.7346-7.3097 0.6193-7.8125-1.7906-7.8125-2.6564 0-11.638 3.9092-15.179 6.6068-1.1031 0.84028-2.375 2.6916-2.8264 4.114-0.7466 2.3523-0.0275 2.1924 7.9509-1.7679 4.8244-2.3947 9.1901-3.9056 9.7014-3.3574 0.5114 0.54818 0.2032 1.2556-0.6849 1.5721-1.1684 0.41639-1.2455 1.0203-0.2789 2.1849 1.0199 1.2289 0.5149 1.8152-2.1353 2.4795-7.9812 2.0004-15.346 5.9896-15.346 8.3123 0 2.1001 0.77261 1.9315 7.6371-1.6668 7.3346-3.8447 7.7045-3.911 9.3406-1.6736zm-4.3087 3.8699c3.1018-1.3467 3.5304-1.8389 1.6324-1.875-1.4155-0.0269-3.6655 0.77694-5 1.7863-3.1176 2.358-1.9314 2.3893 3.3676 0.0887zm-58.607-9.4069c3.7906-0.0188 4.3047-1.7462 2.0153-6.7708l-1.4222-3.1214-4.743 2.4197c-5.5504 2.8316-6.4572 3.9832-5.3693 6.8183 0.53914 1.405 1.6655 1.8566 3.4416 1.3799 1.4521-0.38975 4.187-0.71632 6.0776-0.72571zm50.375-7.4507c0.65312-0.651 4.5625-2.9185 8.6875-5.039 4.8054-2.4702 6.1527-3.5525 3.75-3.0125-5.19 1.1664-15.625 6.5133-15.625 8.0062 0 1.5602 1.6442 1.5835 3.1875 0.0453zm-54.263-3.2818c3.2435-1.6773 3.6777-2.4558 2.9613-5.3099-0.46169-1.8395-1.0873-3.5924-1.3902-3.8953-0.90228-0.90228-11.746 4.7794-11.746 6.1544 0 1.6054 3.8854 1.6282 8.0436 0.0472 4.3536-1.6552 4.1792 0.61144-0.23113 3.0041-4.6038 2.4976-2.4675 2.4972 2.3624-0.00047zm68.263-8.0224c1.5468-0.007 2.8125-0.61941 2.8125-1.3615 0-0.85993-1.4735-1.047-4.0625-0.51591-5.2498 1.077-14.688 5.5231-14.688 6.9192 0 0.59454 2.9531-0.29389 6.5625-1.9743 3.6093-1.6804 7.8281-3.0608 9.375-3.0675zm-68.772-4.3108c0.84668-0.70258-2.928-8.2014-4.1283-8.2014-4.0121 0-9.2875 2.923-9.2875 5.1461 0 2.3598 1.8294 2.4495 8.4375 0.41373 0.85937-0.26475 1.5625 0.28213 1.5625 1.2153 0 0.94937-1.927 2.0582-4.375 2.5174-4.1838 0.78488-5.2861 1.8797-3.5952 3.5706 0.58726 0.58726 9.4171-3.0279 11.386-4.6617zm63.238-2.5764c8.974-4.0647 10.317-5.625 4.8411-5.625-3.8329 0-15.245 6.6074-15.245 8.8266 0 1.5821-0.49226 1.7336 10.404-3.2016zm8.117 1.1956c0.2176-0.17615-0.064-0.60345-0.625-0.94955-0.5613-0.34611-2.7081 0.12085-4.7706 1.0377l-3.75 1.667 4.375-0.7174c2.4062-0.39457 4.553-0.86153 4.7706-1.0377zm-1.9581-10.558c1.2031-0.007 2.1875-0.57471 2.1875-1.2622 0-0.6875-0.2936-1.25-0.6525-1.25-1.3179 0-16.848 7.3641-16.848 7.9891 0 0.35523 2.9531-0.72899 6.5625-2.4094 3.6093-1.6804 7.5468-3.0608 8.75-3.0675zm-77.5 1.2929c4.3419-1.6741 6.2908-3.8052 3.4799-3.8052-2.1676 0-10.042 4.184-10.042 5.3357 0 0.61746 0.42187 0.93234 0.9375 0.69975 0.51562-0.2326 3.0469-1.2362 5.625-2.2303zm68.049-1.8526c3.337-1.6761 7.602-3.6309 9.4777-4.3441 2.8146-1.0701 3.4105-2.0587 3.4105-5.6582v-4.3615l-5.787 2.4806c-8.6895 3.7248-12.963 6.5198-12.963 8.4781 0 1.3257 0.41115 1.4173 1.6704 0.37222 2.7834-2.31 12.461-5.2887 13.572-4.1775 0.5724 0.5724-1.9749 1.9913-5.6606 3.1531-3.6858 1.1618-7.7179 3.2356-8.9603 4.6085-2.9236 3.2305-2.1209 3.146 5.2404-0.55135zm-68.7-3.173c2.6674-1.6264 3.7879-3.1086 3.3038-4.3703-0.897-2.3376-0.5822-2.3423-6.6899 0.10148-4.6925 1.8776-6.157 3.9409-4.192 5.9059 1.376 1.376 3.3279 0.95432 7.5781-1.6371zm-2.1867-7.0403c4.4619-1.7853 7.0264-5.4893 3.8006-5.4893-3.0587 0-11.275 4.198-11.275 5.7607 0 2.2387 1.3212 2.1907 7.4747-0.27145zm84.069-7.3643c1.3865-1.8871 1.1375-6.875-0.3431-6.875-0.7149 0-3.4893 1.117-6.1652 2.4821-5.3496 2.7292-8.1509 5.7491-4.2541 4.5861 6.8902-2.0563 9.5571-2.3765 8.7367-1.049-0.4704 0.76114-2.738 1.7371-5.039 2.1688-4.7376 0.88878-11.979 4.9332-11.979 6.6905 0 1.3247 17.635-6.0871 19.043-8.0036zm-80.293-3.128c0-1.8726-3.1243-1.5073-8.0429 0.94046-2.4176 1.2031-4.4094 3.1211-4.4264 4.2621-0.0267 1.8047 0.78251 1.6823 6.2192-0.94046 3.4375-1.6583 6.25-3.5763 6.25-4.2621zm65.499 2.2868c0.75696-1.5183 4.1244-4.1747 7.4832-5.9032 8.1211-4.1792 5.6027-4.7756-3.3839-0.80122-6.4841 2.8676-7.098 3.4828-7.098 7.1132 0 4.2035 0.75011 4.1013 2.9987-0.40878zm-73.311-4.1252c5.9494-2.5621 7.2134-5.147 1.875-3.8344-4.3623 1.0725-9.0625 4.0853-9.0625 5.8088 0 0.72894 0.42187 1.0977 0.9375 0.81937 0.51562-0.27828 3.3281-1.5355 6.25-2.7938zm-1.6049-5.2651c2.66-1.2684 4.4174-3.009 4.4174-4.375 0-2.8378-0.25404-2.8274-6.2998 0.25692-2.7226 1.389-4.9502 3.3577-4.9502 4.375 0 2.3844 1.4043 2.3316 6.8326-0.25692zm-12.237-8.9918c1.2864-0.74804 1.5814-1.3422 0.67701-1.3637-1.9492-0.0462-10.272 3.3454-10.272 4.186 0 0.81396 6.7631-1.1753 9.5953-2.8223z"/>
</svg>
