<?xml version="1.0" encoding="UTF-8" standalone="no"?>
<!-- Created with Inkscape (http://www.inkscape.org/) -->
<svg id="svg3507" xmlns:rdf="http://www.w3.org/1999/02/22-rdf-syntax-ns#" xmlns="http://www.w3.org/2000/svg" height="356.25" viewBox="0 0 842.5 356.25" width="842.5" version="1.1" xmlns:cc="http://creativecommons.org/ns#" xmlns:dc="http://purl.org/dc/elements/1.1/">
 <metadata id="metadata3513">
  <rdf:RDF>
   <cc:Work rdf:about="">
    <dc:format>image/svg+xml</dc:format>
    <dc:type rdf:resource="http://purl.org/dc/dcmitype/StillImage"/>
    <dc:title/>
   </cc:Work>
  </rdf:RDF>
 </metadata>
 <path id="path3517" d="m435.13365 350.34191c0-0.86343 1.62275-2.28815 3.6061-3.16608 1.98335-0.87791 4.79585-2.62809 6.25-3.88926 2.58402-2.24111 2.6439-3.15699 2.6439-40.44199v-38.14895l-5.64919-0.84715c-3.10706-0.46594-5.32386-1.37355-4.92624-2.01693 0.79414-1.28493 20.42961-1.62694 23.59819-0.41104 3.4624 1.32865 2.12966 2.99126-2.39776 2.99126h-4.375v39.375c0 24.90684-0.45055 39.375-1.22619 39.375-0.6744 0-1.56535 1.35136-1.97989 3.00302-0.57153 2.27716-2.07071 3.33464-6.20235 4.375-7.06885 1.77995-9.34157 1.73182-9.34157-0.19788zm90.79043-13.11764c-1.1492-2.57813-3.6719-11.96869-5.6061-20.86791-4.9536-22.79113-6.43433-21.96813-6.43433 3.57625 0 19.89582-0.1005 20.72916-2.5 20.72916-2.4495 0-2.5-0.83334-2.5-41.25 0-45.94945-0.69318-42.70826 8.56583-40.05282 7.1096 2.03902 8.9363 5.35303 8.9191 16.18158-0.013 7.75635-0.5734 10.47283-3.0625 14.8264l-3.0476 5.33016 2.3644 12.16984c2.6688 13.73657 5.9323 25.33943 7.6243 27.10734 1.7497 1.82825 1.3456 6.9375-0.5487 6.9375-0.9268 0-2.6253-2.10938-3.7744-4.6875zm-7.6975-47.75042c1.2714-2.45859 1.9071-7.23571 1.9071-14.33103 0-9.24319-0.3181-10.81329-2.4179-11.93707-1.3298-0.71169-2.736-1.29398-3.125-1.29398-0.38891 0-0.70713 7.03125-0.70713 15.625 0 16.15002 0.89383 18.60684 4.34293 11.93707zm-195.68944 45.87542c-0.79358-2.92188-1.57405-5.875-1.73438-6.5625s-0.57863-2.09375-0.92957-3.125-2.92775-8.625-5.72625-16.875c-9.30838-27.4412-12.6705-36.21907-14.04867-36.67846-0.97128-0.32377-1.25352 9.32653-0.97757 33.4252l0.38795 33.88039-2.8125-0.001-2.8125-0.001 0.0171-37.1875c0.01-20.45313 0.35624-38.45313 0.77079-40 1.07758-4.02098 5.8417-3.68008 8.73424 0.625 3.95403 5.88492 4.87198 8.05636 9.11529 21.5625 2.26797 7.21875 5.18986 16.45227 6.4931 20.51895 1.30322 4.06666 2.39492 8.28541 2.426 9.375 0.0311 1.08957 1.4119 4.5123 3.06851 7.60605l3.01204 5.625 0.0565-34.14944 0.0565-34.14943 2.8125 0.39943 2.8125 0.39944 0.33291 33.4375c0.23126 23.22671-0.0775 33.4375-1.01126 33.4375-0.73931 0-1.05084 0.47466-0.69229 1.05481 0.93096 1.50633-1.75924 10.64376-3.45601 11.73855-2.96995 1.91624-4.49804 0.78709-5.89486-4.35586zm48.84651 3.82525c0-3.76751 3.11536-16.01275 4.07386-16.01275 0.59053 0 0.74124-0.5379 0.33493-1.19532-0.40631-0.65744 0.0951-4.79077 1.11422-9.18518 3.21453-13.86078 6.97699-37.77385 6.97699-44.34364 0-8.76735 0.80575-10.27586 5.48873-10.27586h3.97125l1.52983 15.3125c4.29293 42.96891 5.33752 52.04341 6.62063 57.51452 1.63685 6.9795 0.92752 9.67298-2.54739 9.67298-2.62733 0-3.02661-1.01204-4.41416-11.18799-1.00355-7.35984-2.43906-8.81201-8.71088-8.81201h-5.25588l-1.54962 8.4101c-0.8523 4.62556-2.1434 9.12556-2.86912 10-1.66484 2.006-4.76339 2.07278-4.76339 0.10265zm20-37.71329c0-16.68226-0.99394-27.04946-2.59331-27.04946-0.55193 0-1.38062 2.67187-1.84152 5.9375-0.4609 3.26562-1.57255 9.59375-2.47031 14.0625s-2.0262 11.35937-2.50761 15.3125l-0.87531 7.1875h5.14404 5.14402v-15.45054zm78.75 36.21002c0-1.64479 1.66801-9.97015 3.7067-18.5008 4.20624-17.60047 8.7933-44.79736 8.7933-52.13577 0-7.40919 0.94999-8.87291 5.75874-8.87291 4.22299 0 4.24136 0.0256 4.26566 5.9375 0.0134 3.26562 0.8525 12.125 1.86462 19.6875s1.84488 17.58385 1.85059 22.26967c0.006 4.68583 0.50513 9.46708 1.1098 10.625 0.60468 1.15793 1.46495 7.06849 1.91173 13.13458 0.80746 10.96325 0.79527 11.02684-2.03692 10.625-2.51923-0.35744-2.93523-1.30323-3.59191-8.16644-0.92928-9.71252-2.44111-11.61281-9.23887-11.61281h-5.30044l-1.49535 9.2696c-1.41094 8.74638-2.60351 10.7304-6.44989 10.7304-0.63126 0-1.14776-1.34574-1.14776-2.99053zm21.2518-28.57198c0.002-10.56063-2.57049-35.93775-3.64309-35.93698-0.74156 0.00054-7.64867 37.58547-7.62273 41.47895 0.009 1.33133 1.27689 2.29578 3.45152 2.62522 8.21084 1.24383 7.81235 1.66031 7.8143-8.16719zm-227.91846 29.47916c-0.45834-0.45832-0.83334-1.86457-0.83334-3.125 0-1.71296 0.94697-2.29166 3.75-2.29166h3.75v-34.375c0-33.05311-0.0922-34.375-2.39776-34.375-3.72563 0-6.35224-1.34746-6.35224-3.25874 0-1.36616 2.55814-1.74126 11.875-1.74126 9.61966 0 11.875 0.34931 11.875 1.83926 0 1.0259-1.79652 2.30455-4.0625 2.89144l-4.0625 1.05216-0.33259 33.98358-0.33259 33.98356h5.02009c4.52143 0 5.02009 0.31041 5.02009 3.125 0 3.09749-0.0972 3.125-11.04166 3.125-6.07293 0-11.41668-0.375-11.875-0.83334zm-207.049037-46.65852-11.84068-2.23972-9.44809-9.82171c-11.50529-11.96026-14.78546-17.65153-22.23081-38.57171l-5.7832599-16.25-0.0532-21.25c-0.0417-16.64775 0.42966-23.00969 2.17644-29.375 2.8803599-10.49616 8.8983199-23.36619 12.1726299-26.03243 2.81792-2.2946 3.46047-3.30757 10.17977-16.04826 6.90187-13.08684 7.04565-13.11897 14.93312-3.33681 3.70414 4.59394 8.57815 10.29494 10.83113 12.66889 3.03623 3.19925 3.88364 5.00301 3.27449 6.96993-1.56689 5.05939-7.8023 16.56197-9.9396 18.33577-2.92707 2.42925-6.80621 11.80723-6.80621 16.45431 0 5.79995 4.99531 26.21065 7.27822 29.7386 1.11219 1.71875 3.04709 5.09375 4.29977 7.5s5.20697 6.69016 8.78731 9.5198c5.08527 4.01904 8.29597 5.47466 14.67306 6.65231 7.45108 1.37598 8.74959 1.27645 14.88184-1.14066 15.019957-5.9203 40.186187-23.20901 41.971317-28.83346 0.92264-2.90698 4.59321-2.86897 5.02352 0.052 0.15191 1.03125 2.02916 4.96875 4.17167 8.75 2.1425 3.78125 4.43951 8.11816 5.10446 9.63758s2.42701 3.98059 3.91569 5.46927c2.59254 2.59253 2.6215 2.88527 0.68694 6.94211-1.11087 2.32949-2.38353 6.61832-2.82814 9.53074-1.06998 7.00866-2.55443 9.6703-5.39336 9.6703-1.28688 0-6.53487 3.51562-11.66223 7.8125-26.27799 22.02175-42.593787 29.95876-60.768187 29.56142-3.17178-0.0694-11.09519-1.13395-17.60757-2.36579zm36.51991-7.61063c4.248954-1.43136 10.278087-4.05839 13.398077-5.83782 7.69631-4.38947 35.04771-24.26295 35.04771-25.46562 0-0.5309-1.40625-2.48263-3.125-4.3372-1.71875-1.85456-3.125-4.7137-3.125-6.35363 0-5.58837-4.32842-4.87154-13.76185 2.27907-6.18081 4.6851-24.437433 14.56575-27.794037 15.04238-2.02075 0.28695-2.93114 1.37381-3.21465 3.83781-0.47049 4.08902-2.67478 4.54164-3.66562 0.75267-0.65971-2.52275-0.79994-2.55101-2.32292-0.46822-0.94675 1.29477-2.44525 1.90025-3.6032 1.4559-1.10345-0.42343-2.26478-0.0247-2.61933 0.89919-0.8266 2.15408-11.50571 2.03333-12.34-0.13954-0.32997-0.85938-1.44142-1.5625-2.4699-1.5625-1.02847 0-4.2805-1.70989-7.22673-3.79974-2.94623-2.08986-7.10265-5.00881-9.23649-6.48657-4.20799-2.91418-7.72585-9.50288-11.8604-22.21369-1.99568-6.1353-2.68782-11.64523-2.82638-22.5-0.17853-13.9854-0.0614-14.64896 4.32004-24.4831 2.47695-5.55945 6.02036-12.30945 7.87424-15l3.3707-4.8919-4.68884-3.75c-5.08268-4.06498-7.81464-6.83439-12.06665-12.23208l-2.74299-3.48207-4.54349 3.76687c-2.99907 2.48644-5.60515 6.43189-7.66679 11.60708-5.31493 13.34162-6.2304799 20.06782-5.66598 41.62607 0.51067 19.50277 0.62938 20.23423 5.137 31.65207 2.53784 6.42837 4.61426 12.2542 4.61426 12.94629 0 3.31407 7.92222 17.25672 12.73026 22.40451 10.4815 11.22215 14.05829 13.60457 23.1342 15.40916 13.30712 2.64591 27.8711 2.37962 36.93976-0.67539zm-17.88778-30.56945c1.53946-8.84022 1.15722-10.57806-2.32666-10.57806-2.42587 0-3.79957 5.04902-3.82603 14.0625-0.0111 3.77446 0.44821 4.6875 2.35793 4.6875 1.94194 0 2.62954-1.48074 3.79476-8.17194zm-11.28283-14.79619c-3.83728-3.42861-4.12345-3.4981-4.97099-1.20696-0.94469 2.55373-1.63378 10.34083-1.33734 15.11259 0.2823 4.54429 2.67472 3.21949 2.67472-1.48113 0-5.0012 2.17587-11.44716 3.43801-10.18502 0.47744 0.47744 0.78189 5.19607 0.67656 10.48586l-0.19152 9.61779 1.89111-9.35254 1.89112-9.35255-4.07167-3.63804zm16.84932 18.28063c2.25688-11.3826 2.3057-12.8125 0.43743-12.8125-1.9944 0-3.42036 5.01589-3.42036 12.03125 0 5.07189 2.02695 5.60275 2.98293 0.78125zm7.57863-6.875c1.13919-8.03681-1.21811-7.73874-2.95798 0.37402-1.80501 8.41645-1.7422 9.63417 0.38139 7.39384 0.95424-1.0067 2.1137-4.50224 2.57659-7.76786zm6.157194 1.40625c1.20908-6.0454 0.98333-10.54584-0.456764-9.10575-1.77995 1.77996-3.15086 13.012-1.58815 13.012 0.69501 0 1.61522-1.75781 2.044914-3.90625zm6.449483-6.71875c0.68835-4.92296 0.54749-5.94133-0.66345-4.7962-0.845563 0.79957-1.823583 4.17457-2.173393 7.5-0.8569 8.14602 1.65446 5.75245 2.836853-2.7038zm6.09265-3.31802c0.45212-2.82741 0.53787-5.4249 0.19055-5.77222-0.8742-0.8742-2.68449 4.34636-3.58558 10.34024-0.65388 4.34945-0.53539 4.71199 0.91066 2.78635 0.91428-1.2175 2.03225-4.52696 2.48437-7.35437zm-51.307157-7.30698c0.0942-1.03125-0.39123-2.13728-1.07873-2.45784-1.48845-0.69402-3.50732 13.47668-2.3091 16.20784 0.69887 1.59299 2.74489-6.7111 3.38783-13.75zm91.730487-1.875c-0.17006-2.0625-0.87171-3.75-1.55921-3.75-0.7194 0-1.33605 4.51015-1.45273 10.625l-0.20272 10.625 1.76194-6.875c0.96906-3.78125 1.6228-8.5625 1.45272-10.625zm-97.971987 3.56331c0.75297-9.7958 0.47759-13.04977-0.98032-11.58415-0.98684 0.99206-3.05762 18.89558-2.38751 20.64185 1.52951 3.98585 2.58301 1.15249 3.36783-9.0577zm64.293907 2.67454c0.43573-8.56026-1.15269-8.14215-3.33618 0.87817-1.82003 7.51882-1.82007 7.51844 0.76755 7.02599 1.73974-0.3311 2.26551-1.94901 2.56863-7.90416zm7.02138-7.48785c0.66757-3.63984 0.54149-4.63393-0.46346-3.65427-0.75927 0.74013-1.64691 4.39638-1.97253 8.125-0.63717 7.29607 0.74217 4.76459 2.43599-4.47073zm20.33873 3.46129c-0.31693-1.21622-0.59708-0.52379-0.62255 1.53871-0.0255 2.0625 0.23382 3.05757 0.57623 2.21129 0.3424-0.84629 0.36324-2.53379 0.0463-3.75zm-100.154037-3.55265c-2.36407-2.36407-2.39673-2.10554-0.42218 3.34233 1.34208 3.70284 1.5943 3.88723 1.96221 1.43445 0.2322-1.54801-0.46082-3.69757-1.54003-4.77678zm85.227067 4.15386c0.74895-1.54688 2.19075-5.34375 3.20402-8.4375 1.01325-3.09375 2.2698-6.75 2.79233-8.125 0.76383-2.00994 0.20163-1.80376-2.868 1.05181-2.71842 2.52887-4.06295 5.18495-4.66839 9.22231-0.46769 3.11878-1.14652 6.44234-1.50852 7.38569-1.10458 2.87849 1.59388 1.9072 3.04857-1.09731zm14.52948-10.76424c0.91855-1.41944 1.26587-1.41851 2.16836 0.006 0.8053 1.27093 1.06944 1.06943 1.05399-0.80405-0.0203-2.46456-2.63941-6.875-4.08265-6.875-1.06831 0-3.36133 8.81939-3.24995 12.5l0.0945 3.125 1.46097-3.13078c0.80354-1.72193 1.95317-3.89137 2.55473-4.82096zm-99.892027-15.90397c0.62489-9.43627 0.50259-13.25878-0.39655-12.39429-1.9776 1.90139-3.81613 15.76222-2.537 19.12661 0.66297 1.74373 0.63134 3.80118-0.0788 5.12814-0.6523 1.21884-0.83235 3.56842-0.40011 5.22131l0.78589 3.00525 0.86153-3.22136c0.47384-1.77175 1.26812-9.3613 1.76507-16.86566zm4.89202 14.32446c1.16944-5.84721 0.9672-7.87008-1.054-10.54234-1.67294-2.21182-1.83876-1.68022-1.875 6.01109-0.0414 8.7845 1.57746 11.28891 2.929 4.53125zm5.19715-79.71356c-1.02101-1.02102-2.1486-1.56415-2.50576-1.207-1.23508 1.23508-2.22747 12.19632-1.30779 14.44486 0.71198 1.74071 1.466 0.69717 3.29653-4.56226 2.0991-6.03113 2.15886-7.03376 0.51702-8.6756zm4.69673 8.61808c0.35982-1.37594 0.14418-2.1865-0.47921-1.80122-0.62338 0.38527-1.13342 1.51105-1.13342 2.50172 0 2.58719 0.84937 2.21824 1.61263-0.7005zm-11.71963-3.74827c-0.0453-1.23633-0.43465-1.02343-1.143 0.625-1.47666 3.43636-1.47666 5.40996 0 3.125 0.66644-1.03125 1.18079-2.71875 1.143-3.75zm-2.63768-16.67999c-1.3346-2.46881-1.6468-2.06552-3.71963 4.80499-3.08794 10.23512-1.66927 13.19692 2.18899 4.57001 2.45662-5.4929 2.72863-7.15891 1.53064-9.375zm3.57253 8.86749c-0.34677-0.85938-0.63048-0.15625-0.63048 1.5625s0.28371 2.42187 0.63048 1.5625c0.34676-0.85938 0.34676-2.26563 0-3.125zm-10.84699-3.82378c0.0105-0.5562-0.54336-0.66362-1.23086-0.23872s-1.24139 1.72372-1.23086 2.88627c0.0165 1.82159 0.18661 1.85459 1.23086 0.23873 0.66644-1.03125 1.22033-2.33008 1.23086-2.88628zm702.519177 150.67741c-5.4507-0.80594-28.8201-7.76317-32.5425-9.68812-5.5861-2.88866-15.8376-10.59211-23.7973-17.88234-7.1254-6.52608-18.0302-14.89057-31.7558-24.35815-3.7974-2.61936-6.9044-5.62717-6.9044-6.68403 0-1.05687 3.6022-5.66375 8.0049-10.23753 4.4027-4.57377 9.6059-10.20245 11.5625-12.50816 1.9567-2.30571 6.126-7.08696 9.2653-10.625 6.9633-7.84789 14.2901-17.46964 25.8392-33.9328 4.8229-6.875 11.5137-15.3125 14.8685-18.75 3.3547-3.4375 8.8779-9.625 12.2739-13.75 3.3959-4.125 8.4316-9.89062 11.1903-12.8125 5.8085-6.15201 7.0949-6.33171 23.6173-3.29926 10.6073 1.94682 11.3988 2.33439 22.3424 10.94004 6.24 4.90695 13.0583 10.16702 15.1519 11.68906 2.0935 1.52203 5.8207 4.41994 8.2826 6.43977 20.7194 16.99903 26.1119 21.73019 28.5934 25.08656l2.8519 3.85742-2.9898 1.13671c-1.6443 0.62519-5.6713 4.27556-8.9489 8.11195-6.3644 7.44962-9.2542 8.43065-16.5116 5.60534-5.6154-2.18612-16.5035-4.88009-19.7236-4.88009-1.9018 0-4.6692-1.90819-7.7515-5.34488-7.0933-7.90887-19.6843-18.40512-22.0782-18.40512-1.1498 0-2.0905 0.84375-2.0905 1.875s-0.8322 1.875-1.8493 1.875c-2.2441 0-19.4315 17.00761-19.3253 19.12309 0.042 0.82605 3.4549 4.03316 7.5853 7.12691 4.1305 3.09375 10.082 7.77326 13.2255 10.39893 3.1435 2.62566 7.0426 5.64347 8.6647 6.70626 4.0669 2.66475 3.7033 5.03475-1.556 10.14249-2.4777 2.40636-5.0729 6.00437-5.767 7.99557-0.6942 1.9912-1.9013 3.34712-2.6825 3.01316s-4.5142-1.52602-8.2954-2.64902c-3.7813-1.123-11.9217-3.74852-18.0899-5.83448-10.7489-3.63506-11.3722-3.70787-15-1.75227-3.6372 1.96065-9.4219 8.99625-9.3992 11.43171 0.01 0.64496 3.2404 3.25759 7.1875 5.80584 7.4094 4.78352 33.292 24.97775 39.3641 30.71281 3.7571 3.54859 4.4879 6.529 1.6009 6.529-2.3289 0-11.0382 13.47041-10.1708 15.73081 0.8139 2.12094-0.2707 2.64762-4.2426 2.06032zm0.7113-4.18088c1.2734-2.06041-1.729-3.4141-9.4506-4.26089-3.7871-0.41532-8.5732-1.0606-10.6357-1.43394-6.3271-1.14528-2.005 1.62143 6.875 4.40095 9.4419 2.95543 12.0279 3.20869 13.2113 1.29388zm2.4423-6.06396c-1.2583-2.03598-9.6475-3.78848-17.5286-3.66171-6.2768 0.101-6.8884 0.29001-3.75 1.15907 3.1975 0.88542 15.0217 2.92989 20.3862 3.52487 0.9 0.0999 1.3015-0.3602 0.8924-1.02223zm-27.6392-9.73379c3.1443-3.95313 5.7173-8.3125 5.7177-9.6875 0.0005-1.41183-1.7638-3.71719-4.0532-5.29639-2.2296-1.53801-6.0227-4.63984-8.4289-6.89295-2.4063-2.25311-10.9844-9.34247-19.0625-15.75414-8.0782-6.41166-14.6875-12.35747-14.6875-13.21292s1.5468-2.94015 3.4375-4.63269c1.8906-1.69254 5.9079-5.97469 8.9272-9.51591 3.0194-3.54121 6.2968-6.74823 7.283-7.1267 1.0782-0.41373 4.6664 2.05236 8.9983 6.18429 3.9627 3.77982 8.1002 6.87241 9.1944 6.87241 1.0941 0 3.2431-1.82813 4.7756-4.0625 1.5324-2.23438 4.1852-5.58644 5.8951-7.44904l3.1089-3.38652-7.8346-7.66616c-9.1002-8.90457-9.1088-8.79815 1.6347-20.0722 3.5502-3.7255 9.9777-11.12513 14.2833-16.44362 4.3057-5.31847 8.6891-9.66996 9.7409-9.66996 2.2807 0 14.6296 8.81703 19.9736 14.26108 2.0861 2.12516 8.2265 7.98892 13.6453 13.03058l9.8524 9.16667 4.1035-4.47917c2.2569-2.46354 4.7053-4.47916 5.441-4.47916 2.8912 0-0.5391-6.73063-5.9586-11.69151-3.1145-2.85092-6.8358-6.3415-8.2696-7.75687-3.9139-3.86355-18.9348-16.65357-29.1627-24.8316l-9.0558-7.24078-4.5239 3.97204c-2.4882 2.18462-10.4405 11.38617-17.6718 20.44788-7.2313 9.06172-13.9789 17.14541-14.9947 17.96379-1.0158 0.81836-4.7384 5.686-8.2725 10.81695-8.8416 12.83678-34.1372 43.86218-41.9059 51.39811-3.5171 3.41165-6.3946 6.79788-6.3946 7.52493s3.8356 3.6888 8.5237 6.58166c4.688 2.89285 11.6248 7.94414 15.4151 11.22508 3.7902 3.28092 11.3208 9.62157 16.7346 14.09032 5.4139 4.46875 11.2739 9.64996 13.0225 11.51381 1.7485 1.86385 3.5554 3.41073 4.0153 3.4375 0.4599 0.0268 3.4089-3.18569 6.5532-7.13881zm31.3072 6.02387c0.3955-0.64 0.1267-1.52977-0.5974-1.97727-2.038-1.25961-22.6794-4.37984-23.9164-3.61531-2.4999 1.545 0.753 3.01071 6.8284 3.07676 3.5688 0.0387 8.4575 0.81545 10.8638 1.72586 5.6485 2.13718 5.9662 2.17396 6.8216 0.78996zm1.9221-6.02387c0-0.51563-4.8477-2.27496-10.7651-3.90964-8.8307-2.43951-10.9458-2.66942-11.8027-1.28299-1.3815 2.23528 0.8542 3.55588 6.3241 3.73559 2.4062 0.079 5.7812 0.5941 7.5 1.14454 4.1255 1.32123 8.7516 1.48656 8.7437 0.3125zm-12.4937-12.25129c0-0.86057-8.1385-4.31121-10.1682-4.31121-2.3064 0-0.093 1.7122 4.3204 3.3424 4.6388 1.71341 5.8478 1.9137 5.8478 0.96881zm-12.5-9.93621c-0.8559-1.03125-3.006-1.875-4.7781-1.875-4.9834 0-0.9346 2.78352 5.2436 3.605 0.5998 0.0798 0.3903-0.69875-0.4655-1.73zm-8.75-6.2179c0-0.3261-1.6875-1.46554-3.75-2.5321-4.1709-2.15683-4.736-1.7895-1.7857 1.16071 1.8159 1.81595 5.5357 2.73746 5.5357 1.37139zm-12.0786-16.95973c-0.5755-0.56126-2.7339-1.39291-4.7964-1.84811l-3.75-0.82765 3.672 2.54303c3.393 2.34981 7.2557 2.455 4.8744 0.13274zm55.3865-5.88487c4.6989-5.91074 6.2616-8.46654 4.518-7.38894-0.7207 0.44542-3.3082-0.0249-5.7501-1.04522-6.07-2.53622-26.7238-5.98772-30.3637-5.07415-4.1967 1.0533-3.8344 4.4448 0.4754 4.4498 5.1838 0.006 25.4596 3.7368 28.1585 5.18122 4.2957 2.29895 1.2367 2.55834-7.4324 0.63024-9.9516-2.21331-25.7959-4.45159-26.5803-3.7549-1.3716 1.21825 2.867 3.09865 16.1667 7.17213 7.9062 2.42157 14.984 4.42861 15.7283 4.46008 0.7443 0.0315 3.0301-2.05213 5.0796-4.63026zm-50.1815 2.18516c1.195-1.93357-5.1201-3.78686-15.6779-4.60102-6.5462-0.50482-9.8679-0.2884-10.4676 0.68195-0.6013 0.97296 0.8209 1.45315 4.5078 1.52201 2.9624 0.0554 7.9175 0.82561 11.0113 1.71174 7.2443 2.07496 9.6709 2.23146 10.6264 0.68532zm-1.3936-6.26482c-1.9959-1.99588-14.7791-4.28413-17.4609-3.12558-1.7941 0.77506-0.1963 1.41519 6.3531 2.54521 11.9196 2.0566 12.6207 2.09323 11.1078 0.58037zm-5.5317-8.15983c-3.2893-3.50129-7.8142-3.68909-8.4501-0.35071-0.386 2.02609 1.6039 2.76224 9.0294 3.34041 2.1971 0.17108 2.147-0.0877-0.5793-2.9897zm43.7989-4.32301c-10.2697-3.94785-13.179-4.43524-14.4264-2.41684-1.2086 1.95548-0.7908 2.12491 10.0933 4.0934 14.2788 2.58246 14.8437 2.3639 4.3331-1.67656zm-2.4595-7.42584c-2.6978-2.07311-10.0405-4.20966-10.0405-2.92156 0 0.66923 10.3742 5.29256 11.875 5.29215 0.6875-0.00019-0.1381-1.06695-1.8345-2.37059zm-9.3233-7.42491c-0.6815-1.10275-6.9672-2.73626-6.9672-1.81063 0 0.54908 5.0603 2.70868 6.6362 2.83214 0.5562 0.0436 0.7052-0.4161 0.331-1.02151zm85.2394-2.90433c-0.5637-1.69121-4.4735-2.86111-15.0585-4.50586-10.3068-1.60151-9.9144 0.20273 0.7007 3.22235 10.5923 3.01315 15.0677 3.41323 14.3578 1.28351zm4.9828-4.43833c0.6395-1.91835-11.2318-5.30659-18.5925-5.30659-6.2948 0-10.0509 2.43791-3.9832 2.58527 1.9312 0.0469 7.1675 1.08937 11.6363 2.31657 8.9224 2.45027 10.2413 2.49907 10.9394 0.40475zm-89.8161-0.77892c1.1301-1.36168 0.8349-1.88158-1.4095-2.48292-3.7881-1.01496-9.0002-0.99014-11.726 0.0559-1.788 0.68613-1.3848 1.15112 2.0853 2.4049 5.7837 2.0897 9.3284 2.09682 11.0502 0.0221zm6.9705-6.09017c1.9427-2.75168 1.8765-2.83665-3.0606-3.92896-5.3719-1.18855-12.6348 0.17102-13.4148 2.5112-0.4098 1.22943 7.1012 3.70625 12.3732 4.08015 1.1641 0.0826 3.0101-1.11552 4.1022-2.66239zm86.3826 1.72669c-0.369-0.59719-3.0462-1.46562-5.9492-1.92983s-5.8686-1.32696-6.5902-1.91722c-1.9224-1.57249-6.2139-2.07272-6.937-0.8086-0.3438 0.60091 3.0312 2.06026 7.5 3.24301 9.5098 2.51695 12.9066 2.91761 11.9764 1.41264zm1.8888-6.90032c-1.864-2.24597-10.9939-4.52787-17.8563-4.4629l-5.3839 0.051 8.125 2.97897c9.4546 3.46643 17.4304 4.22257 15.1152 1.43297zm-80.8805-4.7409c-0.3885-0.6286-3.1878-0.77081-6.2206-0.31601-3.497 0.52442-5.5141 0.35405-5.5141-0.46571 0-1.81458 6.9161-3.12901 11.7209-2.22763 2.5956 0.48694 4.892 0.11575 6.4648-1.04506 3.4389-2.53805 1.3096-4.08857-7.0046-5.10055l-6.9438-0.84519-4.7585 5.8071c-2.6172 3.1939-4.5549 5.96209-4.3062 6.15153 0.2488 0.18945 3.2649 0.88738 6.7024 1.55095 4.9335 0.95239 6.7045 0.83022 8.408-0.58 1.1869-0.98259 1.8402-2.30083 1.4517-2.92943zm70.5053-2.96043c-4.3484-2.36029-18.4741-5.99512-19.4614-5.0078-1.7981 1.79802 3.8163 4.82475 10.5441 5.6844 11.8798 1.51796 12.8278 1.44603 8.9173-0.6766zm-10.1321-7.6213c-1.2489-1.24888-13.6899-5.3546-16.3642-5.40043-4.4883-0.0769 1.5197 4.77094 6.5764 5.30651 8.3763 0.88717 10.6024 0.90852 9.7878 0.0939zm-58.3579-2.31624c-1.7331-2.08828-5.713-2.50516-6.8198-0.71436-0.6437 1.04148 1.8295 1.9398 6.6603 2.41913 1.3845 0.13738 1.4153-0.19158 0.1595-1.70477zm43.9295-7.65981c-2.3075-1.00699-5.9638-2.12739-8.125-2.48978l-3.9295-0.65891 2.9509 2.59175c2.0308 1.78356 4.5645 2.55995 8.125 2.48979l5.1741-0.102-4.1955-1.83088zm-6.9655-6.57107c-0.3759-0.60823-2.2372-1.39939-4.1362-1.75813-1.8991-0.35875-4.8591-1.08365-6.5778-1.6109-2.7701-0.84976-2.9373-0.7296-1.4718 1.0581 1.6433 2.00449 4.4613 2.92092 9.983 3.24658 1.5875 0.0936 2.5787-0.32742 2.2028-0.93565zm-10.7587-8.1592c-1.9875-1.91664-11.3074-4.7995-12.3017-3.80521-1.1697 1.16971 1.7939 2.99534 6.743 4.15382 7.0913 1.65994 7.608 1.62754 5.5587-0.34861zm-11.8303-8.23492c-5.5461-1.41124-8.3722-1.41124-7.5 0 0.4249 0.6875 3.1299 1.18345 6.0112 1.10211 4.9483-0.1397 5.0309-0.2008 1.4888-1.10211zm-600.39313 119.88188c-1.50254-2.81498-2.73399-6.04936-2.73654-7.1875-0.004-1.89114-2.05075-7.89218-16.26504-47.69438-2.57798-7.21875-7.51396-19.59375-10.96883-27.5-8.62336-19.73398-14.27888-33.62311-19.00835-46.68174l-4.00443-11.056753 4.47322-6.443258c7.61388-10.96709 12.39233-15.30723 19.97781-18.14533 11.8665-4.43982 12.81937-3.95731 15.7038 7.95208 2.12552 8.77597 15.37941 39.542041 17.36798 40.316071 0.90559 0.35249 2.2637 0.0237 3.01804-0.73063 0.99536-0.99536 0.28324-3.73258-2.59647-9.9802-5.37224-11.655223-9.81525-29.885071-7.94319-32.591261 2.5046-3.62057 11.5001-20.30594 11.5001-21.33103 0-1.44417 10.32435-5.62165 21.73155-8.79311 10.24411-2.8481 11.94785-2.49525 11.99969 2.48516 0.0337 3.24623 18.14085 51.508611 25.69227 68.479911 1.00457 2.2577 1.82649 5.10331 1.82649 6.32359 0 1.22027 0.82586 3.31056 1.83525 4.64509 1.00937 1.33452 1.85312 3.59351 1.875 5.01997 0.0389 2.53358 2.83031 11.00589 9.44182 28.65644 5.89707 15.74324 5.98815 16.38155 3.68102 25.796-1.16315 4.74637-1.84529 10.03976-1.51585 11.7631 0.45046 2.35646-0.21194 3.70537-2.67163 5.44049-2.80069 1.97565-17.22069 8.42-20.6574 9.23186-1.11331 0.26301-23.40917-46.05542-24.93934-51.81009-1.55032-5.83056-2.5753-6.47905-7.61286-4.8165-5.8574 1.93313-6.44981 3.6304-4.06384 11.64317 4.83872 16.24975 8.9213 25.87697 10.97359 25.87697 1.55279 0 2.24905 1.50308 2.75041 5.9375 0.57959 5.12629 0.0895 6.9786-3.58743 13.55763-2.3423 4.19106-4.25874 9.34898-4.25874 11.46203 0 3.52682-0.53824 4.01925-6.5625 6.004-3.60938 1.18914-9.42049 3.7656-12.91358 5.72547-3.49308 1.95985-6.90435 3.56337-7.58058 3.56337-0.67624 0-2.45889-2.30316-3.96144-5.11812zm16.23832-6.02812c5.27738-1.77581 9.96073-3.59962 10.40747-4.05288 0.44672-0.45328-0.86128-4.67203-2.90668-9.375-2.0454-4.70299-6.08377-14.73838-8.97419-22.30088-2.8904-7.5625-6.2982-14.66455-7.57288-15.78232-1.2747-1.11778-1.98459-2.36537-1.57753-2.77242 0.40705-0.40706 0.0245-2.46766-0.85007-4.57911-1.42878-3.44936-1.31249-4.13461 1.14571-6.75124 6.1288-6.52381 27.79391-15.6791 30.93472-13.07245 0.93574 0.77659 2.89443 5.41598 4.35265 10.30975 1.45823 4.89379 3.95649 11.42904 5.55169 14.52279 1.59521 3.09375 5.69389 11.64858 9.10816 19.01073l6.20778 13.38573 9.47647-3.18618c5.21207-1.75241 9.47648-3.73484 9.47648-4.40542 0-2.44474-2.63475-6.05486-4.41898-6.05486-1.00706 0-1.83102-1.06915-1.83102-2.37588s-3.87356-12.13486-8.60791-24.0625c-4.73436-11.92765-10.3828-26.71973-12.5521-32.87131s-4.60009-11.97502-5.40178-12.94099c-0.80167-0.96596-2.39237-5.2141-3.53488-9.44031-1.14252-4.2262-2.68387-9.37151-3.42523-11.43401-0.74135-2.0625-2.64284-8.361173-4.22551-13.997041-2.01855-7.18804-3.53769-10.42007-5.08879-10.82667-1.91826-0.50285-2.01048-1.02018-0.69606-3.90498 1.22356-2.68545 1.1898-3.5264-0.17545-4.37018-2.06843-1.27835-3.29095-0.89726-14.72876 4.59128-4.9838 2.39154-10.6088 4.77551-12.5 5.29772-3.18104 0.87837-3.41618 1.38173-3.13999 6.72184 0.30676 5.9315 4.46102 19.544981 7.32014 23.988031 3.08868 4.79981 11.60773 27.05775 10.98112 28.69067-0.61282 1.597-22.59797 11.93433-25.38161 11.93433-0.761 0-2.21829-1.96875-3.23841-4.375-1.02013-2.40625-2.77254-6.48438-3.89425-9.0625-1.12173-2.57813-2.76604-7.21875-3.65404-10.3125-1.78305-6.21206-7.23849-19.59867-8.50194-20.86212-0.4425-0.4425-0.81222-2.25768-0.82161-4.03372-0.0521-9.857761-3.76423-11.607961-14.53686-6.853853-4.02659 1.77699-7.51036 3.41502-7.74169 3.64007-0.40361 0.39263 4.56364 12.985263 14.04647 35.609623 2.44937 5.84375 4.46369 11.57617 4.47627 12.73872 0.0126 1.16255 0.53298 2.429 1.15645 2.81433 2.79061 1.72469 28.77182 70.38347 30.87385 81.5882 0.6268 3.34119 1.2372 4.0629 2.83325 3.34997 1.11887-0.49978 6.35217-2.36163 11.62955-4.13746zm19.75603-23.18155c-0.017-1.82361-1.08228-0.86157-3.75 3.3866-4.72868 7.53012-4.69579 9.06934 0.0745 3.4884 2.03456-2.38027 3.68851-5.47402 3.67545-6.875zm-6.90394-1.09454c1.74773-2.98227 3.17769-6.44445 3.17769-7.69373 0-2.16095-0.12989-2.1556-2.67079 0.10987-3.2021 2.85495-6.05522 9.11428-5.18645 11.37828 0.91395 2.3817 1.1925 2.15583 4.67955-3.79437zm-7.204-4.89017c-0.32451-0.85938 1.02454-4.48881 2.99789-8.06541 3.52959-6.39719 3.27324-9.88101-0.41611-5.65511-3.74994 4.29531-5.61 15.28302-2.58719 15.28302 0.32749 0 0.32992-0.70313 0.005-1.5625zm6.63169-6.5625c0.89694-1.08074 1.01842-1.875 0.28679-1.875-0.69813 0-1.59309 0.84375-1.98883 1.875-0.39572 1.03125-0.52477 1.875-0.28679 1.875 0.23799 0 1.13297-0.84375 1.98883-1.875zm55.97352-7.72676c0.81929-3.90598 1.28106-7.31034 1.02614-7.56525-0.98554-0.98553-5.95867 11.06936-5.2878 12.81762 1.36195 3.5492 2.78283 1.79801 4.26166-5.25237zm-61.25376-2.97199c1.60426-1.96746 2.31633-3.81542 1.63293-4.23779-0.66651-0.41192-2.64979 1.7047-4.40727 4.70361-3.13424 5.34819-4.48417 10.00372-1.55941 5.37798 0.81894-1.29523 2.76914-3.92494 4.33375-5.8438zm-3.68027-3.53838c3.85121-5.94342 5.14165-9.7654 2.81078-8.32485-1.37271 0.84839-7.60027 11.78263-7.60027 13.34442 0 1.98249 0.78627 1.15845 4.78949-5.01956zm60.97441 2.04963 2.07811-4.0625-2.67101 2.38124c-1.46905 1.30967-2.671 3.1378-2.671 4.0625 0 2.7184 1.04543 1.95568 3.2639-2.38124zm-59.5139-14.88396c0-1.8232-3.15374 0.84816-6.42506 5.44231-1.42979 2.00795-2.21614 4.4847-1.78259 5.61452 0.58779 1.53176 1.67625 0.60176 4.49171-3.83777 2.04377-3.22269 3.71594-6.47126 3.71594-7.21906zm57.56686 3.81401c2.29048-4.5374 3.18483-7.41261 2.20549-7.09033-3.20246 1.0539-9.39068 14.72278-6.66535 14.72278 0.33386 0 2.3408-3.4346 4.45986-7.63245zm4.93314-0.17366c0-0.69729-0.82908-0.56193-1.875 0.30611-1.03125 0.85586-1.875 2.11861-1.875 2.80611 0 0.69729 0.82908 0.56193 1.875-0.30611 1.03125-0.85586 1.875-2.11861 1.875-2.80611zm-70-2.19389c0.73587-1.375 1.05671-2.5 0.71296-2.5s-1.22709 1.125-1.96296 2.5c-0.73588 1.375-1.05671 2.5-0.71296 2.5s1.22708-1.125 1.96296-2.5zm60-2.78953c0-0.58393 1.17959-2.65717 2.62129-4.6072 1.44171-1.95001 2.42608-4.55182 2.1875-5.78178-0.62932-3.2443-7.04227 6.34458-7.99844 11.95957-0.69888 4.10404-0.63123 4.20994 1.22496 1.91753 1.08058-1.33453 1.96469-2.90418 1.96469-3.48812zm-2.04476-12.52297c1.87007-3.26563 3.11546-5.9375 2.76751-5.9375-1.14742 0-6.97275 9.29302-6.97275 11.1235 0 2.17184-0.0281 2.2066 4.20524-5.186zm0.18945-16.96194c-0.69044-1.79926-1.13154-1.65807-3.22597 1.0326-1.33438 1.71427-2.79235 4.52309-3.23991 6.24184s-1.3617 3.48399-2.03142 3.92275c-0.66973 0.43875-0.80415 1.46684-0.29873 2.28463 1.34462 2.17563 9.81968-10.81423 8.79603-13.48182zm-6.43945 0.71194c1.87007-3.26562 3.11546-5.9375 2.76751-5.9375-1.14742 0-6.97275 9.29303-6.97275 11.1235 0 2.17184-0.0281 2.2066 4.20524-5.186zm-68.47307-4.62525c1.79722-2.71576 3.07083-5.51618 2.83024-6.22314-0.4515-1.32679-5.28771 5.09995-6.7526 8.97339-1.4209 3.75714 0.51363 2.4007 3.92236-2.75025zm14.26783 1.18775c0.73587-1.375 1.05671-2.5 0.71296-2.5s-1.22709 1.125-1.96296 2.5c-0.73588 1.375-1.05671 2.5-0.71296 2.5s1.22708-1.125 1.96296-2.5zm-1.70709-8.23353c0.97216 0.37305 1.31581-0.0816 0.89348-1.18224-0.98458-2.56576-4.92785-0.19349-7.29845 4.39075-2.93273 5.67126-2.23108 6.10258 1.46862 0.9028 1.84611-2.59464 4.06748-4.44473 4.93635-4.11131zm49.68404 6.2936c0.42686-1.1124 0.21731-1.61414-0.49126-1.17622-0.67963 0.42003-1.23569 1.293-1.23569 1.93992 0 1.79804 0.89596 1.40183 1.72695-0.7637zm-63.8046-6.12717c4.62451-6.96502 4.52504-10.33043-0.15761-5.33187-4.59968 4.90998-7.42577 12.14897-4.74294 12.14897 0.20584 0 2.41109-3.0677 4.90055-6.8171zm73.28837 0.8796c0.0726-2.88864-2.37923-1.59593-4.40572 2.32287l-2.00921 3.88538 3.18782-2.32288c1.7533-1.27758 3.2055-3.02599 3.22712-3.88537zm-8.2241-3.13582c4.45403-5.8701 5.72694-9.67668 3.23585-9.67668-1.81375 0-8.72247 11.24968-8.72247 14.20306 0 1.35498 0.21897 2.22923 0.48662 1.94278 0.26764-0.28646 2.51764-3.19758 5-6.46916zm-68.61162-3.42668c1.24436-1.375 1.7481-2.5 1.11941-2.5-0.62867 0-1.84562 1.125-2.70432 2.5s-1.36244 2.5-1.11942 2.5c0.24303 0 1.45997-1.125 2.70433-2.5zm-0.36731-14.0281c1.24901-1.72264 1.24698-2.46722-0.01-3.72433-1.26165-1.26165-2.16285-0.83742-4.57384 2.1531-3.76748 4.67307-4.34434 6.7736-2.91861 10.62771 1.11322 3.00932 1.17196 2.9774 3.53673-1.92162 1.32259-2.73997 3.10722-5.95065 3.96583-7.13486zm60.99231 10.2817c0-0.68552 2.04764-3.51288 4.5503-6.28303 5.66214-6.26733 4.81014-7.97766-0.93819-1.88333-4.44327 4.71073-6.85196 9.41276-4.82184 9.41276 0.66535 0 1.20973-0.56088 1.20973-1.2464zm-56.25-3.7536c0-3.60419-1.91509-3.99171-4.48728-0.90802-1.27676 1.53066-1.52068 2.0799-0.54206 1.22052 2.63676-2.31544 4.15843-1.89715 3.4167 0.93922-0.35981 1.37595-0.14417 2.18651 0.47921 1.80123 0.62339-0.38527 1.13343-1.7591 1.13343-3.05295zm63.62828-0.53839c-0.32885-0.32885-1.34261 0.64213-2.25279 2.15774-1.58115 2.63288-1.55451 2.65952 0.59791 0.59791 1.23904-1.18675 1.98373-2.4268 1.65488-2.75565zm-1.17954-12.33619c0.0281-0.549773-0.83304-2.709623-1.91385-4.799683-1.86322-3.603058-2.08549-3.691168-4.2865-1.699278-2.42583 2.195338-6.24839 9.383581-6.24839 11.749951 0 2.51798 1.93561 1.41653 4.17616-2.37641 1.35872-2.30012 3.24487-3.750003 4.87838-3.750003 2.58596 0 2.57022 0.0997-0.54294 3.437503-1.76337 1.89063-3.918 4.84375-4.78805 6.5625-0.99082 1.95733 0.33416 1.02319 3.546-2.5 2.82035-3.09375 5.15099-6.07481 5.17919-6.62458zm-72.29775-4.417093c0.60446-0.22917 1.09901-1.34479 1.09901-2.479168 0-1.47153-1.26862-0.79387-4.42754 2.365038-3.0883 3.0883-4.17425 5.087553-3.59019 6.609593 0.70247 1.83062 1.23858 1.51681 3.32852-1.94836 1.37015-2.271743 2.98573-4.317933 3.5902-4.547103zm63.29397-2.655678c3.64031-4.38478 3.91448-5.24353 2.5971-8.13484-1.83406-4.02534-3.46961-3.54251-6.54622 1.93253l-2.40208 4.27466 2.75181-2.8125c1.5135-1.54688 3.2592-2.8125 3.87935-2.8125 1.95074 0 2.58853 2.20818 0.83243 2.88206-1.85595 0.71219-7.5053 9.631328-6.07769 9.595398 0.49244-0.0124 2.72683-2.22856 4.9653-4.924808zm-68.91897-0.65007c1.01608-1.01608 2.68623-2.31684 3.71143-2.89058 1.92697-1.07838 1.21973-5.262-0.88953-5.262-1.14997 0-6.08463 7.33938-6.09322 9.0625-0.007 1.460648 1.25064 1.110758 3.27132-0.90992zm1.3465-13.94677c-0.83328-0.83327-5.87249 6.43044-5.87249 8.46482 0 0.91283 1.45625-0.48337 3.23612-3.10268s2.96623-5.03227 2.63637-5.36214zm66.62751-2.32713c0-0.34577-0.51662-0.62868-1.14805-0.62868-1.65754 0-6.3562 7.99857-6.3282 10.77254 0.0154 1.52298 1.33762 0.26019 3.75-3.58136 2.04944-3.26359 3.72625-6.21672 3.72625-6.5625zm-74.93271 3.50578c3.2874-3.52231 3.58924-4.16677 1.27433-2.72087-2.73213 1.70651-7.4242 7.33641-6.1143 7.33641 0.29274 0 2.47073-2.077 4.83997-4.61554zm71.31027-6.32196c1.44916-1.54688 2.11135-2.8125 1.47153-2.8125-1.62517 0-6.06209 5.12009-7.04089 8.125-0.81434 2.5-0.81434 2.5 1.0601 0 1.03094-1.375 3.06011-3.76563 4.50926-5.3125zm-3.63594-2.61496c0.89835-1.26636 2.26809-2.53198 3.04385-2.8125 0.95457-0.34518 1.0449-1.48318 0.27949-3.52066l-1.13097-3.01061-3.09199 4.19096c-3.18185 4.31275-3.98816 7.45527-1.91288 7.45527 0.64852 0 1.91414-1.03611 2.8125-2.30246zm-31.49162-2.7511c0-0.71695 2.56794-4.04888 5.70654-7.40429 4.21475-4.50591 5.02823-5.92337 3.11183-5.42222-4.10926 1.0746-13.37568 14.13007-10.02914 14.13007 0.66592 0 1.21077-0.5866 1.21077-1.30356zm18.64452-10.88394c2.83999-3.60938 4.55135-6.5625 3.80303-6.5625-1.77949 0-14.94755 13.17762-14.94755 14.9584 0 2.68887 5.94914-1.79301 11.14452-8.3959zm10.31955 5.11876c2.46649-2.23214 3.16868-7.18385 0.91207-6.43164-1.50004 0.50001-5.24284 8.50038-3.97673 8.50038 0.42831 0 1.8074-0.93093 3.06466-2.06874zm-5.70017-3.24376 2.07811-4.0625-2.67101 2.38123c-1.46905 1.30968-2.671 3.1378-2.671 4.0625 0 2.7184 1.04543 1.95569 3.2639-2.38123zm409.58863 157.141091c-9.6258-2.59275-21.8027-9.13509-36.7625-19.75145-14.1155-10.01721-18.7642-14.78392-24.2527-24.86803-8.9796-16.49852-3.0735-53.13037 11.7267-72.733113 6.6369-8.790538 22.8887-21.739658 37.686-30.027538 9.232-5.1708 14.9845-7.38684 25.8463-9.95672 13.262-3.13775 14.6901-3.23827 28.125-1.9796 19.774 1.85255 23.1656 2.5026 25.1788 4.82593 2.0215 2.33297 3.5816 13.69069 2.5731 18.73308l-0.6795 3.39753-19.5843-0.0185-19.5844-0.0185-10.625 5.11846c-11.0708 5.333178-28.225 18.888911-30.8144 24.350281-4.2948 9.05835-5.7632 24.84959-2.3106 24.84959 1.0312 0 1.875-0.82396 1.875-1.83103 0-3.015 3.8947-4.22401 18.551-5.75861 10.4196-1.091 15.4399-1.10312 19.8817-0.048 12.0109 2.85311 37.916 11.91878 40.2372 14.08128 2.3242 2.16536 2.3278 2.36016 0.1303 6.95456-1.2434 2.59974-3.4765 9.4512-4.9624 15.22547-3.2823 12.75587-8.2283 27.13483-10.5549 30.68568-0.9431 1.43941-6.427 5.04712-12.1864 8.01712-5.7593 2.97-11.5965 6.40375-12.9715 7.63057-6.133 5.47195-14.2499 6.42726-26.5225 3.12155zm20.1151-1.76875c4.1522-1.57867 5.5667-4.52644 6.1962-12.91228 0.3017-4.01899 1.6051-8.72907 3.0777-11.12193 3.3725-5.48013 9.7-21.68693 10.771-27.58813 0.7561-4.16607 0.5664-4.6875-1.7059-4.6875-3.3771 0-3.2514-1.75738 0.2559-3.57764 1.5468-0.80282 1.9687-1.24811 0.9375-0.98954-1.0313 0.25859-3.8559-0.52263-6.2769-1.73603-2.4211-1.21341-12.6534-5.01533-22.7386-8.44871l-18.3366-6.24252-1.8024 5.28959c-1.1681 3.42821-1.4005 6.00761-0.6604 7.33 1.1291 2.0177 19.0017 8.37485 23.5452 8.37485 3.6328 0 4.105 4.08355 1.4004 12.11199-1.3579 4.03088-2.7668 9.79986-3.1308 12.81996-1.0238 8.49375-2.7907 8.84044-15.2037 2.9831-7.3515-3.46898-23.3622-16.16335-27.5569-21.84896-4.0598-5.5027-5.8365-14.8922-5.2923-27.96813 0.7395-17.76657 7.7599-29.88002 23.5079-40.561953 17.8585-12.113398 37.0075-18.312198 52.2326-16.908338l9.0625 0.83563v-6.43883c0-8.671-1.3612-10.6953-8.8685-13.18881-7.8772-2.6164-14.4895-1.9029-30.8079 3.32436-18.3143 5.8666-33.1598 15.30165-47.1986 29.99721-8.1784 8.560891-10.6071 12.061731-13.3323 19.217771-4.9819 13.08189-6.0845 17.65446-7.2341 30-2.2885 24.57781 4.7666 35.89848 35.2554 56.571 19.4941 13.21766 35.1439 18.69426 43.9036 15.36384zm17.6818-11.07713c-0.857-0.85696-8.1494 2.40806-8.1494 3.64871 0 0.59298 1.9617 0.14267 4.3593-1.00067 2.3976-1.14335 4.1031-2.33496 3.7901-2.64804zm7.1631-4.55006c3.0758-0.52228 4.6875-1.4671 4.6875-2.74803 0-1.36112-0.6623-1.68562-2.1875-1.07187-1.2032 0.48411-4.8352 1.68391-8.0713 2.66621-6.7429 2.04676-9.4533 4.5838-3.1926 2.9884 2.242-0.57133 6.1857-1.39695 8.7639-1.83471zm-2.1875-4.5892c6.8382-1.48845 10.3158-3.59345 5.9365-3.59345-5.408 0-15.192 2.72551-16.7924 4.67785-1.4509 1.76997-1.2769 1.90405 1.4809 1.14085 1.7187-0.47566 5.9375-1.47703 9.375-2.22525zm10-7.66661c1.5766-1.57783-9.8762-0.23667-12.9029 1.51097-1.4426 0.83293 0.049 0.98132 4.7779 0.4754 3.7812-0.4045 7.4375-1.29836 8.125-1.98637zm-0.3125-4.01008c1.8906-0.39291 3.4375-1.54742 3.4375-2.56557 0-2.19816-4.3461-2.37279-12.4693-0.50103-5.4734 1.26119-7.4731 2.79034-7.5116 5.74393-0.014 1.09357 1.6583 1.03045 6.5434-0.24693 3.6093-0.9438 8.1093-2.03747 10-2.4304zm-45.3125-0.14592c0-2.20741-2.691-1.82299-3.4636 0.49478-0.2721 0.8164 0.3959 1.48438 1.4844 1.48438s1.9792-0.89063 1.9792-1.97916zm1.25-8.14431c0-1.82433-1.9363-1.30473-5.4565 1.4642-4.7716 3.75336-4.0422 5.26667 1.0815 2.24365 2.4062-1.41973 4.375-3.08826 4.375-3.70786zm48.4375 0.68212c0.8593-0.2641 1.5625-1.13394 1.5625-1.93297 0-1.79644-6.3543-0.90393-12.5073 1.75677l-4.3677 1.88867 6.875-0.61615c3.7812-0.33887 7.5781-0.83222 8.4375-1.09632zm-55.3125-7.23161c2.0625-1.08731 3.2369-1.99946 2.6098-2.02699-2.0885-0.0916-11.9848 6.28349-11.9848 7.72054 0 0.77836 1.2656 0.26054 2.8125-1.1507 1.5468-1.41125 4.5-3.45553 6.5625-4.54285zm50.9375 2.59362c7.0144-1.32913 8.96-2.81895 5.4435-4.16835-2.6738-1.02605-11.4202 1.72197-14.7002 4.61864-2.5808 2.27915-2.6322 2.48818-0.4308 1.74998 1.375-0.46109 5.7343-1.4512 9.6875-2.20027zm-62.6531-0.4989c0.9436-1.14303 4.4818-3.30151 7.8628-4.79661s5.6061-3.05281 4.9447-3.46159c-2.4668-1.52455-16.7169 6.38621-16.7169 9.28018 0 1.74025 2.0776 1.19715 3.9094-1.02198zm19.8406-0.42176c0-0.6875-0.5293-1.25-1.1763-1.25-0.6469 0-1.5238 0.5625-1.9487 1.25s0.1043 1.25 1.1762 1.25c1.0718 0 1.9488-0.5625 1.9488-1.25zm-24.375-8.05818c1.8548-1.38172 2.0161-1.8654 0.625-1.87427-2.9534-0.0189-7.9809 4.39315-6.9348 6.08574 0.6861 1.11016 1.297 1.00012 2.3673-0.42642 0.7933-1.0575 2.5675-2.76077 3.9425-3.78505zm25.625 4.30818c0-0.6875-1.2657-1.21046-2.8125-1.16214-2.6837 0.0839-2.698 0.13708-0.3125 1.16214 1.375 0.59086 2.6406 1.11383 2.8125 1.16214 0.1718 0.0483 0.3125-0.47464 0.3125-1.16214zm42.5128-1.99469c6.635-0.88016 8.7823-2.24084 5.5149-3.49465-2.7753-1.065-12.6453 1.6393-14.5524 3.98725-1.3596 1.67385-1.2736 1.84775 0.5719 1.1562 1.1948-0.44768 5.0043-1.18963 8.4656-1.6488zm-61.8967-1.741c0.4379-0.70857-0.064-0.91812-1.1762-0.49126-2.1655 0.83099-2.5617 1.72695-0.7637 1.72695 0.6469 0 1.5199-0.55606 1.9399-1.23569zm65.0089-4.2014c4.9868-1.15464 6.3307-2.01457 6.6494-4.255 0.376-2.64341-0.041-2.80791-7.1137-2.80791-4.1323 0-7.8458 0.53815-8.2523 1.19589-0.4541 0.73475 1.6213 0.91632 5.3822 0.4709 3.5801-0.42401 6.4447-0.20185 6.9001 0.53512 0.475 0.76845-2.3854 1.59896-7.331 2.12859-5.7657 0.61746-8.1097 1.38167-8.1097 2.64399 0 2.09064 3.1269 2.11391 11.875 0.0884zm-73.125-0.81291c1.0312-0.66645 1.3125-1.21171 0.625-1.21171s-2.0938 0.54526-3.125 1.21171c-1.0313 0.66645-1.3125 1.21171-0.625 1.21171s2.0937-0.54526 3.125-1.21171zm-2.555-3.15898c0.7177 0.44359 1.305-0.0704 1.305-1.14225 0-2.96531-2.9631-2.3318-6.3446 1.35649l-3.0304 3.30526 3.3825-2.163c1.8604-1.18966 3.9698-1.80008 4.6875-1.3565zm-0.5658-6.62846c-0.788-0.78797-8.1292 2.40588-8.1292 3.53666 0 0.52027 1.9526 0.0609 4.3391-1.02083 2.3866-1.08171 4.0921-2.21384 3.7901-2.51583zm79.9958-0.41722c3.4095-1.50887-14.0102-0.3453-18.125 1.21066-2.2173 0.83842-0.4018 0.9949 6.25 0.53867 5.1562-0.35365 10.5-1.14085 11.875-1.74933zm-81.3334-3.665c2.5013-2.33408-0.2153-2.13827-3.7174 0.26796-3.4716 2.38516-3.5069 2.48864-0.5742 1.68115 1.7187-0.47324 3.65-1.35034 4.2916-1.94911zm-0.4121-7.75085c-1.0573-1.05727-2.4465-0.36438-5.4613 2.72396l-4.0432 4.1419 5.4612-2.72395c4.0721-2.03106 5.1005-3.08464 4.0433-4.14191zm55.9102 5.26855c9.2692-0.0986 9.455-0.15904 5.6358-1.83247-3.1362-1.37416-5.517-1.45436-11.5625-0.38946-4.1872 0.73755-7.613 1.90359-7.613 2.59119 0 0.68759 0.8897 0.90874 1.9772 0.49144 1.0875-0.41732 6.2906-0.80463 11.5625-0.8607zm-7.3559-5.05459c1.3762-0.88981 0.029-1.06656-4.6286-0.6073-3.6134 0.35629-7.5509 1.27046-8.75 2.03152-1.6761 1.06379-0.6059 1.2042 4.6286 0.6073 3.7448-0.42703 7.6823-1.34122 8.75-2.03152zm-49.7976-3.59345c1.3555 0 2.2717-1.30625 2.6304-3.75 0.387-2.6367 0.033-3.75-1.1924-3.75-1.1267 0-1.4833 0.81732-1.0089 2.31212 0.5727 1.80439-0.1618 2.56898-3.3446 3.48182-2.3729 0.68051-4.2638 2.13132-4.5214 3.46902-0.416 2.1605-0.2677 2.17669 2.4571 0.26818 1.5949-1.11713 3.8358-2.03114 4.9798-2.03114zm34.2388 2.5c2.2788-0.97924 2.2235-1.07429-0.625-1.07429-1.7188 0-4.25 0.48343-5.625 1.07429-2.2788 0.97924-2.2235 1.07429 0.625 1.07429 1.7187 0 4.25-0.48343 5.625-1.07429zm-30.9375-13.19017c0.8593-0.26475 1.5625-1.31351 1.5625-2.33058 0-1.50373-0.6871-1.6097-3.6775-0.56724-2.0226 0.70508-4.3708 2.11744-5.2183 3.13858-1.3215 1.59237-1.0205 1.74161 2.115 1.04861 2.0107-0.4444 4.3589-1.02462 5.2183-1.28937zm4.8062-9.49172c2.3504-2.64717 2.3489-2.66389-0.1187-1.29185-1.375 0.76451-3.3438 1.96275-4.375 2.66274-1.6435 1.11558-1.6289 1.27508 0.1187 1.29186 1.0966 0.0105 3.0654-1.18771 4.375-2.66275zm-2.5857-4.5767c-0.3848-0.38486-1.3934-0.00079-2.2414 0.85348-1.2253 1.23452-1.0817 1.3781 0.6998 0.69974 1.2328-0.46941 1.9265-1.16836 1.5416-1.55322zm5-2.5c-0.3848-0.38486-1.3934-0.00079-2.2414 0.85348-1.2253 1.23452-1.0817 1.3781 0.6998 0.69974 1.2328-0.46941 1.9265-1.16836 1.5416-1.55322zm5.592-1.49141c1.0312-0.66645 1.3125-1.21172 0.625-1.21172s-2.0938 0.54527-3.125 1.21172c-1.0313 0.66644-1.3125 1.21171-0.625 1.21171s2.0937-0.54527 3.125-1.21171zm71.25-23.750001c0-0.6875-2.1094-1.21047-4.6875-1.16215-3.7603 0.0705-4.193 0.30037-2.1875 1.16215 3.4736 1.49266 6.875 1.49266 6.875 0zm-1.5625-5.86166c-1.2032-0.31441-3.1719-0.31441-4.375 0-1.2032 0.31441-0.2188 0.57165 2.1875 0.57165 2.4062 0 3.3906-0.25724 2.1875-0.57165zm1.3289-6.32584c-0.4531-2.3773-4.9421-3.5336-8.2948-2.1366-1.7134 0.71393-1.4112 1.17862 1.6534 2.54247 5.1599 2.29634 7.1334 2.17573 6.6414-0.40587zm-401.76129 130.743561c-0.49083-0.79417-0.8017-5.15355-0.69085-9.6875 0.11087-4.53396-0.35241-10.49356-1.02949-13.24356-0.67707-2.75-1.83219-14.28125-2.56691-25.625-0.73473-11.34375-2.97565-29.90625-4.97983-41.25-2.00417-11.343753-4.31567-27.375001-5.13667-35.625001-0.82099-8.25-1.94083-15.50805-2.48854-16.129-1.73377-1.9656 1.05386-5.28041 12.71325-15.11742 12.17988-10.27616 15.14771-11.66522 38.6739-18.10075 27.44046-7.50627 51.32133-9.78334 55.39499-5.28199 1.11786 1.23522 2.8904 6.15709 3.93897 10.9375 5.7915 26.40301 8.12788 35.6146 10.60615 41.81666 4.17057 10.43715 5.05989 13.88166 5.05989 19.59787 0 2.88166 0.52922 6.631358 1.17606 8.332668 0.64684 1.701313 2.06299 7.503563 3.14699 12.893883 1.08399 5.39032 2.49699 10.92558 3.13999 12.30058 3.22077 6.88738 3.76016 12.31957 1.56798 15.79124-1.18581 1.87791-6.78692 10.67587-12.44691 19.55102s-10.7424 18.3098-11.29425 20.96589l-1.00337 4.82925-10.58074 1.56584c-5.81941 0.8612-14.04027 1.58966-18.26857 1.6188l-7.68783 0.053-1.31507-5.9375c-0.72329-3.26563-1.66783-7.76563-2.09899-10-0.54569-2.82791-1.4831-4.0625-3.08463-4.0625-2.96462 0-14.16211 12.55177-17.46396 19.57616-1.46198 3.11021-3.47989 5.50505-4.7306 5.61422-6.35999 0.55519-20.63899 3.58365-23.10164 4.89969-2.88209 1.54018-4.36984 1.46264-5.44932-0.28401zm16.99486-6.67416c6.30668-1.10681 11.20242-2.64853 12.04571-3.79329 1.77046-2.4034-0.0362-10.73684-6.54391-30.18401-1.65099-4.93371-3.0018-10.96251-3.0018-13.39731v-4.42693l10.377-3.16519c5.70736-1.74083 12.99818-3.16517 16.20182-3.16517 5.68491 0 5.85355 0.11262 7.02107 4.6875 0.65794 2.57812 1.21155 6.375 1.23025 8.4375 0.10075 11.11506 0.54801 14.7675 3.13781 25.625l2.83251 11.875 10.96849-0.19566c6.03267-0.10763 12.88382-0.55498 15.22477-0.99414 3.71324-0.69661 4.25628-1.27473 4.25628-4.53128 0-2.05303-1.06795-6.94942-2.37323-10.88086-1.30527-3.93144-3.09461-10.52306-3.97631-14.64806s-2.62625-9.93726-3.87677-12.91614c-1.25053-2.97886-2.27369-8.38956-2.27369-12.02375 0-3.6342-0.80805-11.32194-1.79567-17.08387s-2.69186-18.351241-3.78719-27.976241c-2.30283-20.23555-6.51675-39.29982-8.88788-40.20971-0.90212-0.34618-5.59132-0.0164-10.42044 0.73288-4.82911 0.74927-14.28227 1.93237-21.00701 2.62913-6.72475 0.69676-18.41431 2.69181-25.97681 4.43344s-15.08553 3.44746-16.71783 3.79073c-2.8858 0.60687-2.94558 0.87286-2.16331 9.62382 1.32888 14.86553 3.37748 30.51621 6.41386 48.999711 3.33938 20.32801 4.45637 29.99269 5.02694 43.4954 0.36243 8.57706 1.66225 19.96641 3.77383 33.0671 0.75661 4.69417 0.37852 4.63612 14.29151 2.1944zm-2.85659-75.78978c-3.16265-10.18862-5.89341-29.839441-5.89341-42.409521 0-5.60787 0.37901-6.44984 3.85485-8.56362 4.81811-2.93008 24.59416-7.21585 26.00795-5.63633 0.56238 0.62829 1.66538 8.67644 2.45113 17.88479 0.78575 9.20834 2.04123 17.480568 2.78997 18.382738 0.74873 0.90217 0.99165 2.23844 0.53984 2.9695-1.08543 1.75625 1.68317 10.030323 3.35626 10.030323 0.83657 0 0.78239 0.63106-0.15076 1.75543-0.80129 0.96549-1.11073 3.13463-0.68765 4.82031 0.49415 1.96887 0.0729 3.76119-1.17798 5.01208-2.08167 2.08167-11.10352 4.40514-21.47486 5.53059l-6.36624 0.69084-3.2491-10.46713zm25.17618-10.46712c0.067-1.87663-1.61367-0.69327-6.74016 4.74578-3.75619 3.98518-6.82943 7.86686-6.82943 8.62596 0 2.47945 13.47782-10.80188 13.56959-13.37174zm-2.31959 10c1.61469-1.71875 2.65454-3.125 2.31079-3.125s-1.9461 1.40625-3.56079 3.125-2.65454 3.125-2.31079 3.125 1.9461-1.40625 3.56079-3.125zm-16.08171-4.27099c-2.8731-1.77568-0.4826-5.72679 7.99667-13.217243 4.44678-3.928188 8.08504-7.948238 8.08504-8.933448 0-3.07277-4.37485 0.19538-10.70499 7.996988-6.5066 8.019093-8.04501 9.097193-8.04501 5.637843 0-1.3036 3.68705-5.991103 8.19345-10.416661 9.54112-9.36999 11.08506-11.69907 9.5608-14.42279-0.89294-1.59558-2.67273-0.24655-9.40163 7.12612-4.5651 5.00186-8.67678 8.71767-9.1371 8.25737-1.27652-1.27653 5.53679-10.42782 12.27252-16.48383 3.30658-2.9729 6.01196-6.0777 6.01196-6.89957 0-2.58082-6.88826 2.66153-13.64743 10.38644-7.29336 8.33545-7.75304 11.08882-4.34962 26.052561 1.49855 6.5886 2.36159 8.44767 3.42705 7.38221 1.06546-1.06547 0.99956-1.68648-0.26171-2.46599zm17.3311-14.166513c0.001-1.95193-1.9498-0.77062-7.13958 4.322763-7.36242 7.22567-6.75791 8.58246 0.88958 1.99659 3.43716-2.960023 6.24966-5.803733 6.25-6.319353zm-16.28969-21.280438c3.31407-3.62612 7.49139-7.37742 9.28294-8.33623 2.81358-1.50578 4.6065-5.07083 2.55018-5.07083-3.78722 0-19.29282 14.28155-19.29282 17.7698 0 3.34776 0.88669 2.82919 7.4597-4.36274zm-0.4362-10.55024c-1.29586-1.29586-7.0235 2.84497-7.0235 5.07768 0 2.31082 0.32809 2.21889 3.73696-1.04701 2.05533-1.96913 3.53426-3.78293 3.28654-4.03067zm19.49052 106.518181c3.441-3.09375 7.03928-5.625 7.99617-5.625 1.92373 0 2.40443-4.4417 0.60131-5.55609-0.62618-0.387-4.078 2.99048-7.67073 7.50551-4.34918 5.4657-6.94941 7.79194-7.7806 6.96075-1.44628-1.44628 3.83863-8.63372 11.31475-15.38796 5.73309-5.1795 5.72969-8.92879-0.004-4.10444-2.09454 1.76244-6.3028 6.23454-9.35169 9.938-4.75365 5.7742-5.3467 7.1012-4.1625 9.3139 0.75952 1.41918 1.70038 2.58033 2.0908 2.58033s3.52522-2.53125 6.96621-5.625zm60.66526-10.3125c3.5905-6.01563 8.00111-13.32813 9.80137-16.25 1.80026-2.92188 2.9951-5.3125 2.65519-5.3125-0.33992 0-4.92969 5.625-10.1995 12.5-5.26982 6.875-10.34372 12.5-11.27533 12.5-1.36327 0-1.4176 0.73186-0.27839 3.75 0.77852 2.0625 1.7199 3.75 2.09198 3.75 0.37207 0 3.61419-4.92188 7.20467-10.9375zm-55.51544-9.89446c3.16788-2.73175 4.34079-4.60299 3.78805-6.04343-0.6414-1.67145-2.48019-0.41981-9.24442 6.29259-4.64406 4.60847-9.1485 8.14412-10.00986 7.857-0.91315-0.30437 2.41943-4.61239 7.99314-10.33266 5.25759-5.39585 9.55925-10.00884 9.55925-10.25109s-0.75939-0.44045-1.68754-0.44045-4.68396 3.51562-8.34625 7.8125c-3.6623 4.29687-7.7556 8.71256-9.09624 9.81264-2.20097 1.80605-2.28467 2.4633-0.8624 6.77283l1.57514 4.77269 5.87121-6.14784c3.22917-3.3813 7.93613-7.92844 10.45992-10.10478zm57.02705-2.89605c8.38993-9.62717 11.32161-13.86524 11.05161-15.97637-0.20212-1.58033-0.93-2.97324-1.6175-3.09533-1.09684-0.19479-11.116 11.58276-18.93529 22.25847-2.02805 2.76889-3.04841 3.31896-4.16886 2.24738-1.12979-1.08052 1.24976-4.5849 9.97875-14.69578 6.30428-7.30231 11.97714-12.95876 12.60636-12.56987 0.62922 0.38888 1.14404-0.1367 1.14404-1.16795 0-3.72371-2.32062-3.1578-7.24525 1.76682-7.66484 7.66485-19.0056 21.90201-18.99778 23.84979 0.0139 3.4466 2.67743 11.25685 3.70905 10.8758 0.58067-0.21448 6.19436-6.2863 12.47487-13.49296zm-70.14527-1.27199c7.90188-8.97699 5.58802-10.26933-2.79757-1.5625-5.2713 5.47323-7.16291 9.0625-4.77613 9.0625 0.53457 0 3.94273-3.375 7.57371-7.5zm-5.25966-4.6307c-1.03032-1.03033-4.53596 0.62006-4.53596 2.13545 0 0.92445 0.79932 0.90542 2.60706-0.062 1.43388-0.76739 2.30189-1.70041 1.9289-2.0734zm82.39423-27.46946-0.75454-3.00629-5.51048 4.51542c-3.03076 2.48348-8.20405 7.71056-11.49618 11.61573-3.29214 3.90516-6.70195 7.55012-7.57735 8.09991-1.95935 1.23055-2.05144 3.66559-0.20833 5.5087 1.01109 1.01109 4.73586-1.99511 13.84237-11.17194 10.57971-10.6614 12.34522-13.00871 11.70451-15.56153zm-4.74269-4.10856c3.23321-1.58555 3.39202-3.10039 1.27826-12.192183-0.87841-3.77829-2.22615-6.599098-3.15292-6.599098-4.09717 0-22.81284 21.115051-22.81284 25.737481 0 1.33757 3.60813-1.35295 9.9863-7.44663 14.03785-13.411683 17.74331-12.703733 4.38369 0.83753-12.55528 12.72597-14.86998 16.0771-13.68458 19.81195 0.81969 2.58261 1.72301 1.92983 11.04115-7.97854 5.58164-5.9352 11.41407-11.41193 12.96094-12.17051zm-18.73581-8.82337c3.74887-4.142653 9.29102-9.234851 12.31587-11.316001 4.75878-3.27412 5.3218-4.11643 4.17894-6.25188-1.28136-2.39426-1.43475-2.40162-5.13705-0.24649-7.42395 4.32153-23.17759 25.346461-18.99168 25.346461 0.44977 0 3.88503-3.38944 7.63392-7.53209zm7.57785-19.030411c2.37282-1.89063 4.79937-3.4375 5.39233-3.4375 0.59298 0 1.07813-1.40625 1.07813-3.125 0-1.95117-0.70772-3.125-1.88411-3.125-2.63275 0-21.86589 19.6827-21.86589 22.376978 0 4.2336 1.52496 3.64682 7.22527-2.780198 3.15703-3.55948 7.68144-8.01866 10.05427-9.90928zm3.00601-16.403c-0.1867-1.37779-0.5538-2.71942-0.81578-2.9814-0.99281-0.99281-5.31286 2.76123-11.33595 9.85071-3.43264 4.0404-6.66702 7.34619-7.1875 7.34619-3.90085 0 5.40609-12.74466 13.60998-18.63714 2.30654-1.65668 4.1937-4.09418 4.1937-5.41667 0-3.3809-1.01405-2.73241-11.80898 7.55186l-9.57605 9.12304 0.78583 5.87696c0.4322 3.23232 1.02859 6.63521 1.3253 7.56198 0.85643 2.67499 21.22954-17.1754 20.80945-20.27553zm-4.03555-16.69513c0-3.21172-2.98179-1.39981-10.77296 6.54626-11.22647 11.44967-10.20184 14.0399 1.39796 3.53401 5.15625-4.67 9.375-9.20612 9.375-10.08027zm-4.0625-3.40981c2.96552-0.89418 4.02114-5.68479 1.25-5.6728-2.76558 0.012-17.84687 15.63206-17.38769 18.00888 0.3278 1.69672 1.89783 0.63604 6.875-4.64458 3.5476-3.7639 7.71581-7.22507 9.26269-7.6915zm-0.4657-9.09652c1.80946-0.95278 2.06164-1.74528 1.10136-3.4612-1.09361-1.95417-2.3225-1.12466-10.0805 6.80446-5.24661 5.36233-8.5647 9.73449-8.1694 10.7646 0.45658 1.18982 2.88566-0.55928 7.73369-5.56874 3.88742-4.01687 8.12411-7.85948 9.41485-8.53912zm-83.5968 2.56612 5-4.39387-5.2836 2.83628c-2.90598 1.55996-6.84348 4.51181-8.75 6.55968l-3.4664 3.72339 3.75-2.1658c2.0625-1.19119 6-4.14305 8.75-6.55968zm4.72765 4.03306c2.21229-0.99978 6.5536-4.14643 9.64735-6.99256 3.61796-3.32838 4.50999-4.61713 2.5-3.61191-4.4961 2.24858-18.75 11.30213-18.75 11.9093 0 1.00693 2.64298 0.48462 6.60265-1.30483zm70.98991-7.97566c7.20299-7.09214 8.85238-10.416 6.03328-12.1583-1.72312-1.06495-16.12584 13.01707-16.12584 15.76677 0 1.90593 1.05049 3.68497 2.17589 3.68497 0.28007 0 3.84257-3.28205 7.91667-7.29344zm-54.21031 1.98094c2.67784-2.23438 6.24669-5.05645 7.93077-6.27127 1.83835-1.32611 0.56437-1.00092-3.18802 0.81376-6.09014 2.94523-13.66021 9.52001-10.96116 9.52001 0.7423 0 3.54059-1.82813 6.21841-4.0625zm10.99275-2.92817 3.75-3.27434-4.14636 2.32c-2.2805 1.276-5.093 3.38623-6.25 4.68939-2.0013 2.25413-1.98203 2.30055 0.39636 0.95434 1.375-0.77827 4.1875-2.8885 6.25-4.68939zm10.25227 1.48748c1.96301-1.65176 7.73132-5.87051 12.81849-9.375 10.08671-6.94863 9.95884-8.26076-0.29981-3.0763-6.2739 3.17067-22.14595 13.87763-22.14595 14.93921 0 1.74204 6.63932 0.0263 9.62727-2.48791zm13.49773-4.12168 6.25-5.76284-6.875 4.78584c-8.92725 6.21446-9.63796 6.86386-7.4375 6.79585 0.99688-0.0308 4.625-2.64929 8.0625-5.81885zm15.625-7.47052c0-0.84072-5.91077 3.01871-11.3573 7.41572-3.53783 2.85612-3.94704 3.65368-2.3927 4.66351 1.44266 0.93729 3.24407-0.23994 7.8125-5.10547 3.26562-3.47801 5.9375-6.6162 5.9375-6.97376zm125.625 160.717831c-5.5-0.57477-10.9994-1.20308-12.2209-1.39624-1.58479-0.25061-3.39421-3.75239-6.31748-12.2262-7.3155-21.20589-9.7225-23.73751-10.93863-11.50504-0.85401 8.58994-1.63314 10.20343-4.58674 9.49869-3.41541-0.81495-11.97473 4.70913-12.80743 8.26575-0.62542 2.67134-1.52435 3.16589-6.30412 3.4683-8.76898 0.55481-26.85826-1.49975-26.57391-3.01823 0.13793-0.73657 0.51145-7.46939 0.83003-14.96185 0.31858-7.49243 1.43494-22.06012 2.4808-32.37262 1.04588-10.3125 2.81475-30.5625 3.93084-45.000001 1.1161-14.4375 2.84002-31.48983 3.8309-37.89406 0.9909-6.40422 1.80164-14.40688 1.80164-17.78368 0-7.22423 0.66851-7.81749 15.46577-13.72487 9.80427-3.91407 9.87525-3.92246 19.13599-2.26302l9.29523 1.66563 3.05943 7.5c1.68269 4.125 3.64564 11.15625 4.36211 15.625 1.84654 11.5172 4.81457 22.65767 6.8985 25.89352 0.98063 1.52268 1.78297 4.08705 1.78297 5.69858 0 1.61154 0.82586 4.02196 1.83525 5.35648 1.00938 1.33453 1.85313 3.22467 1.875 4.20032 0.0831 3.71009 6.9253 20.101101 8.39088 20.101101 1.77321 0 2.50783-3.940063 3.49596-18.750001 0.64031-9.59691 1.66411-17.15161 5.74615-42.40124 0.71366-4.41443 1.80202-8.9688 2.41857-10.12083 0.6432-1.20184 7.17157-4.13752 15.31699-6.88777l14.19603-4.79317 9.9251 2.41786c7.4726 1.82043 9.8073 2.88021 9.4486 4.289-1.945 7.63734-2.841 16.24296-3.9653 38.08609-1.4434 28.04074-2.4611 39.075431-5.3639 58.160061-2.0876 13.72542-3.5183 27.54262-3.9477 38.125-0.1395 3.4375-0.3364 8.07812-0.4376 10.3125-0.1321 2.9153-0.7831 4.0625-2.3055 4.0625-3.1945 0-20.37853 10.20148-20.37853 12.09792 0 1.90247-12.66434 2.02082-29.375 0.27452zm27.21495-8.93494c2.67571-9.08786 5.45395-39.35883 3.85552-42.00889-0.73491-1.21842-0.82748-3.8329-0.22762-6.42861 0.55609-2.40625 1.30552-11.125 1.66543-19.375 0.35989-8.25 0.92073-16.406251 1.24632-18.125001 0.32557-1.71875 1.16916-13.25 1.87463-25.625s1.59972-24.57774 1.98722-27.1172c0.59064-3.87073 0.33504-4.63669-1.58095-4.7378-1.25703-0.0663-5.75949-0.42708-10.00546-0.80167l-7.71995-0.68106-0.71256 6.04386c-0.39192 3.32413-1.53459 11.66887-2.53929 18.54387s-2.1562 16.71875-2.55889 21.875c-1.01314 12.97293-2.96205 31.443981-4.4183 41.875001-0.67186 4.8125-1.47586 11.84375-1.78666 15.625s-1.40762 9.125-2.43738 11.875c-1.02975 2.75-1.89697 6.23242-1.92715 7.73872-0.087 4.34533-2.69089 4.88788-5.64967 1.17722-2.5087-3.14622-8.13852-23.01143-10.06163-35.50321-0.45192-2.9355-1.70626-6.22186-2.78742-7.30302-1.08115-1.08115-2.0852-3.46063-2.2312-5.28772-0.27196-3.40322-5.26837-18.899111-9.3335-28.946991-1.25165-3.09375-3.20548-9.28125-4.34183-13.75-4.14997-16.32002-11.09487-36.91474-12.9618-38.4375-2.07472-1.69226-13.63531-2.11406-16.03935-0.58522-1.90945 1.21431-4.97359 23.20109-6.65772 47.77272-0.73038 10.65625-2.11513 26.406251-3.07723 35.000001-1.84353 16.46694-4.13277 45.07696-4.70091 58.75l-0.3376 8.125 12.5 0.82067c6.875 0.45137 12.65966 0.6667 12.85481 0.47853 0.91676-0.88405 1.79608-27.6657 1.70483-51.9242-0.10425-27.720543 0.68425-37.587921 3.06692-38.377951 0.75711-0.25104 2.37268 2.23443 3.59014 5.52326 1.21747 3.288828 3.04496 6.645378 4.06111 7.459021 1.01614 0.81363 1.51755 2.01326 1.11423 2.66584-0.80577 1.30375 3.47554 14.68604 5.4655 17.08379 0.68517 0.82558 0.91855 1.82829 0.51861 2.22822-0.39994 0.39994 2.62899 10.19193 6.73096 21.76 4.10197 11.56805 8.41458 23.97933 9.58358 27.58062s2.78557 6.96264 3.59239 7.46968c1.43191 0.89987 23.2354 3.55295 32.23331 3.92218 4.41262 0.18108 4.56077 0.0346 6.44856-6.37716zm5.91005-2.1875c0-0.6875-0.24805-1.25-0.55123-1.25-0.30317 0-0.89887 0.5625-1.32377 1.25s-0.17685 1.25 0.55123 1.25c0.72807 0 1.32377-0.5625 1.32377-1.25zm-66.90745-10.05251c-1.36299-2.20537-12.97175 4.12653-13.05327 7.11978-0.0219 0.80107 3.02245-0.21603 6.84752-2.28777 3.78774-2.05153 6.58032-4.22594 6.20575-4.83201zm81.56888 6.7973c-0.4153-0.41537-1.4935-0.45977-2.39581-0.0986-0.99716 0.39903-0.70097 0.69523 0.75521 0.7552 1.3177 0.0542 2.056-0.24116 1.6406-0.65652zm-1.0156-3.7891c1.7154-1.50083-2.35317-0.107-4.34442 1.48827-2.28789 1.83296-2.248 1.85899 0.69859 0.45568 1.71875-0.81855 3.35933-1.69333 3.64583-1.94395zm-1.14583-6.16865c0-0.34375-1.125-0.0229-2.5 0.71296-1.375 0.73587-2.5 1.61921-2.5 1.96296s1.125 0.0229 2.5-0.71296c1.375-0.73588 2.5-1.61921 2.5-1.96296zm-84.99084-2.65763c6.26748-3.38496 7.87693-5.37941 4.341-5.37941-2.49841 0-11.85016 5.93112-11.85016 7.51567 0 1.77279 0.57332 1.60968 7.50916-2.13626zm4.95464 2.16942c3.0557-1.93249 0.89054-2.47327-2.46569-0.61584-1.81061 1.00205-2.33513 1.739-1.24811 1.75357 1.03125 0.0139 2.70246-0.49815 3.7138-1.13773zm73.95712-7.63603c2.78924-1.42296 4.79009-2.86845 4.44634-3.2122-0.67318-0.67319-10.86726 4.2045-10.86726 5.1998 0 1.04425 1.2156 0.66795 6.42092-1.9876zm9.82911-1.1628c1.0312-0.66645 1.3125-1.21171 0.625-1.21171s-2.0938 0.54526-3.125 1.21171c-1.03128 0.66645-1.31253 1.21171-0.625 1.21171 0.6875 0 2.0937-0.54526 3.125-1.21171zm-85.00003-5.10351c2.40625-1.2573 3.53716-2.31087 2.51314-2.34124-2.66118-0.079-12.50287 4.12374-12.50845 5.34149-0.006 1.27567 4.26587-0.006 9.99531-3.00025zm36.25-1.18103c0-0.62535-0.84052-0.81446-1.86782-0.42025-1.02731 0.39421-1.55093 1.22949-1.16363 1.85617 0.81007 1.31072 3.03145 0.25852 3.03145-1.43592zm46.95493 1.35085c1.4618 1.21321 1.7951 1.00932 1.7951-1.09824 0-2.33309-0.3696-2.45918-3.75233-1.27996-2.06376 0.71943-4.10039 1.87129-4.52585 2.55968-0.42545 0.6884 0.4553 0.59397 1.95721-0.20983 2.09226-1.11975 3.15047-1.11311 4.52587 0.0284zm-81.98936-7.32685c-1.07158-0.40157-11.21557 4.42033-11.21557 5.33128 0 0.28596 2.75499-0.70985 6.1222-2.2129 3.3672-1.50306 5.65923-2.90633 5.09337-3.11838zm83.25316 0.0626c-0.5655-0.56553-10.71873 4.48528-10.71873 5.33207 0 0.32084 2.51891-0.64044 5.59757-2.13616 3.07866-1.49574 5.38316-2.93391 5.12116-3.19596zm-5.55891-0.48808c4.06161-2.16482 7.14811-4.1727 6.85881-4.46196-0.8269-0.82691-13.02746 4.72624-14.63233 6.66-2.19631 2.6464-0.32036 2.11595 7.77352-2.19804zm-76.78134-4.35215c-0.63846-0.63845-8.61315 2.09574-10.56598 3.62261-3.88701 3.03919-0.96758 3.12856 4.73827 0.14506 3.46543-1.81203 6.08789-3.50748 5.8277-3.76767zm34.74652 5.78817c0.4249-0.6875-0.0713-1.25-1.10246-1.25-1.03125 0-2.22264 0.5625-2.64754 1.25s0.0713 1.25 1.10246 1.25c1.03125 0 2.22264-0.5625 2.64754-1.25zm0.625-7.07565c0-0.92089-0.73624-1.67435-1.63609-1.67435-2.64495 0-6.32007 3.25064-5.38524 4.76324 1.14135 1.84675 7.02133-0.74002 7.02133-3.08889zm48.75003-3.13936c0-0.59719-2.25 0.062-5.00003 1.46501-2.75 1.40295-5 2.77537-5 3.04985 0 0.27447 2.25-0.38479 5-1.46503 2.75003-1.08022 5.00003-2.45266 5.00003-3.04983zm-88.58104 2.18345c3.2765-1.38785 3.74751-1.96034 2.13133-2.59045-1.86875-0.72859-9.80032 2.32991-9.80032 3.77911 0 1.1259 3.47692 0.58699 7.66899-1.18866zm80.14351-1.69949c3.26562-1.55729 5.93753-3.06448 5.93753-3.34932 0-1.19961-11.23466 3.43163-12.73509 5.24977-1.80419 2.18617-1.72663 2.1645 6.79756-1.90045zm-39.75-3.00636c1.64408-1.40191-0.91158-1.29325-4.85613 0.20647-1.76351 0.67049-3.20637 1.78343-3.20637 2.4732 0 1.26094 5.6392-0.61332 8.0625-2.67967zm-42.49631 0.0368c1.7511-0.79786 3.18381-1.96076 3.18381-2.58424 0-1.4958-5.1305 0.0829-7.45536 2.29403-2.27553 2.16425-0.15737 2.30815 4.27155 0.29021zm88.84244-3.54939c1.0939 0 1.6413 0.5625 1.2164 1.25s-0.1876 1.25 0.5274 1.25c1.3179 0 3.3454-5.91881 2.3638-6.90048-0.5832-0.58316-12.12154 5.21818-14.14123 7.11001-0.6875 0.64398 0.84131 0.29778 3.39735-0.76933 2.55605-1.06711 5.54238-1.9402 6.63628-1.9402zm-3.78363-3.64688c6.05263-3.28484 8.87313-5.57406 9.14943-7.42594 0.4494-3.01207-1.1473-3.38004-5.1691-1.19128l-2.7303 1.48589 3.125 0.84205c2.9169 0.78598 2.9585 0.90291 0.625 1.75627-1.375 0.50282-3.9131 1.43684-5.64028 2.07559-3.5584 1.316-11.27339 7.27985-9.35975 7.23529 0.6875-0.016 5.1875-2.16605 10-4.77787zm-86.21675 1.63515c3.58562-2.34939 2.98084-4.23827-1.35702-4.23827-2.42132 0-3.05123 0.64515-3.05123 3.125 0 3.67855 0.35594 3.76844 4.40825 1.11327zm39.93331-0.73735c7.10512-3.45193 8.03148-7.02599 1.06682-4.11596-5.18439 2.16617-7.90838 4.15295-7.90838 5.7681 0 1.55036 0.49675 1.43041 6.84156-1.65214zm-0.59156-6.00092c1.61586-1.04425 1.58286-1.21436-0.23873-1.23086-1.16255-0.0105-2.46137 0.54336-2.88627 1.23086-0.97772 1.582 0.67704 1.582 3.125 0zm55.73863-8.42806c-0.3345-0.33447-10.17862 3.90136-16.05113 6.90663-0.51563 0.26387-0.9375-0.0512-0.9375-0.70025 0-1.47423 14.00443-9.02832 16.73743-9.02832 1.1069 0 2.0126-0.5625 2.0126-1.25 0-2.20377-4.8987-1.34303-11.60408 2.03893-7.22577 3.64442-8.34879 4.82493-8.37681 8.80564-0.0185 2.62921 0.29093 2.56899 9.31409-1.81261 5.1333-2.49269 9.1407-4.7247 8.9054-4.96002zm-94.03659 6.55306c-0.39574-1.03125-1.50308-1.875-2.46078-1.875-2.01787 0-2.36096-2.0851-0.448-2.72275 0.78654-0.26218 0.55723-1.405-0.58525-2.91667-1.75759-2.32558-1.88106-2.10338-1.91826 3.45192-0.0368 5.49061 0.1925 5.9375 3.04602 5.9375 2.22935 0 2.88608-0.52038 2.36627-1.875zm37.1927-1.5434c6.25453-2.22142 7.49485-3.62683 4.2871-4.85776-1.9359-0.74287-11.93184 4.28896-11.93184 6.00634 0 1.42052 0.71278 1.31344 7.64474-1.14858zm-5.82918-7.73543c0.39221-0.63461 2.39415-1.52305 4.44878-1.97432 4.01761-0.88242 4.46401-1.92527 2.44168-5.704033-1.56926-2.932178-3.86073-3.048418-8.88426-0.45065-4.79975 2.48205-4.07562 3.36131 1.46061 1.77354 2.70249-0.77506 4.67617-0.78218 5.43874-0.0196 1.25915 1.25914 0.39143 1.72024-5.78361 3.073303-1.89063 0.41427-3.4375 1.58625-3.4375 2.6044 0 2.02911 3.17538 2.54222 4.31556 0.69736zm50.13303-0.79013c2.28789-1.83297 2.248-1.85899-0.69859-0.45568-3.82629 1.82226-4.53542 2.39964-2.94725 2.39964 0.67069 0 2.31131-0.87478 3.64584-1.94396zm12.52914-7.502003c2.1039 2.87734 2.5235 1.83266 3.6113-8.991538 0.7346-7.30972 0.6193-7.8125-1.7906-7.8125-2.6564 0-11.63776 3.90918-15.17903 6.6068-1.10309 0.84028-2.37499 2.69159-2.82645 4.11401-0.7466 2.35233-0.0275 2.19245 7.95088-1.76786 4.8244-2.39474 9.1901-3.90557 9.7014-3.35739 0.5114 0.54818 0.2032 1.25564-0.6849 1.57212-1.1684 0.41639-1.2455 1.02027-0.2789 2.18493 1.0199 1.22886 0.5149 1.81525-2.1353 2.47948-7.98121 2.00036-15.34613 5.989598-15.34613 8.312258 0 2.100123 0.77261 1.931503 7.63709-1.66676 7.33464-3.844738 7.70454-3.911008 9.34064-1.67355zm-4.3087 3.869883c3.1018-1.346693 3.5304-1.838913 1.6324-1.875003-1.4155-0.0269-3.6655 0.77694-5 1.78632-3.11759 2.358023-1.93138 2.389263 3.3676 0.0887zm-58.60653-9.406861c3.79055-0.0188 4.30469-1.74616 2.01531-6.77081l-1.4222-3.12137-4.743 2.41969c-5.55036 2.83159-6.45722 3.9832-5.36929 6.81833 0.53914 1.40495 1.66554 1.85658 3.44157 1.37987 1.45206-0.38975 4.18698-0.71632 6.07761-0.72571zm50.375-7.45071c0.65312-0.651 4.5625-2.91854 8.68753-5.03897 4.8054-2.4702 6.1527-3.55253 3.75-3.01254-5.19 1.16643-15.62503 6.5133-15.62503 8.00621 0 1.56017 1.64425 1.58354 3.1875 0.0453zm-54.26261-3.28179c3.24348-1.67728 3.67766-2.45579 2.96132-5.30994-0.46169-1.83947-1.08729-3.59237-1.39024-3.89532-0.90228-0.90228-11.74597 4.77941-11.74597 6.15445 0 1.60536 3.88536 1.62815 8.04363 0.0472 4.35361-1.65524 4.17922 0.61144-0.23113 3.00409-4.60375 2.49758-2.46747 2.49715 2.36239-0.00047zm68.26264-8.02235c1.5468-0.007 2.8125-0.61941 2.8125-1.36153 0-0.85993-1.4735-1.04705-4.0625-0.51591-5.2498 1.07696-14.68753 5.52306-14.68753 6.91923 0 0.59454 2.95312-0.29389 6.5625-1.9743 3.60933-1.6804 7.82813-3.06078 9.37503-3.06749zm-68.77177-4.31079c0.84668-0.70258-2.92796-8.20142-4.12827-8.20142-4.01209 0-9.28749 2.92304-9.28749 5.14609 0 2.35983 1.82935 2.44953 8.4375 0.41373 0.85937-0.26475 1.5625 0.28213 1.5625 1.21529 0 0.94937-1.92696 2.05816-4.375 2.51741-4.18376 0.78488-5.28613 1.87969-3.59522 3.57059 0.58726 0.58726 9.41711-3.02789 11.38598-4.66169zm63.23787-2.57642c8.974-4.06471 10.3168-5.625 4.8411-5.625-3.8329 0-15.24473 6.6074-15.24473 8.82663 0 1.5821-0.49226 1.73359 10.40363-3.20163zm8.117 1.19561c0.2176-0.17615-0.064-0.60345-0.625-0.94955-0.5613-0.34611-2.7081 0.12085-4.7706 1.03768l-3.75 1.66696 4.375-0.7174c2.4062-0.39457 4.553-0.86153 4.7706-1.03769zm-1.9581-10.5584c1.2031-0.007 2.1875-0.57471 2.1875-1.26221s-0.2936-1.25-0.6525-1.25c-1.3179 0-16.84753 7.36413-16.84753 7.9891 0 0.35523 2.95312-0.72899 6.56253-2.4094 3.6093-1.6804 7.5468-3.06078 8.75-3.06749zm-77.50003 1.29294c4.34186-1.67411 6.29076-3.80515 3.47991-3.80515-2.1676 0-10.04241 4.184-10.04241 5.33568 0 0.61746 0.42187 0.93234 0.9375 0.69975 0.51562-0.2326 3.04687-1.23622 5.625-2.23028zm68.04933-1.85258c3.337-1.67608 7.602-3.6309 9.4777-4.34406 2.8146-1.07008 3.4105-2.0587 3.4105-5.65815v-4.36152l-5.787 2.48058c-8.68952 3.72477-12.96303 6.51975-12.96303 8.47814 0 1.3257 0.41115 1.41732 1.67041 0.37222 2.7834-2.31001 12.46062-5.28871 13.57192-4.17748 0.5724 0.5724-1.9749 1.99131-5.6606 3.15314-3.6858 1.16182-7.71788 3.23564-8.96028 4.60848-2.92356 3.2305-2.12094 3.14605 5.24038-0.55135zm-68.70042-3.17301c2.66744-1.62639 3.78793-3.10861 3.30376-4.37032-0.897-2.33755-0.5822-2.34233-6.68987 0.10148-4.69249 1.87756-6.15701 3.9409-4.19196 5.90594 1.37599 1.376 3.32791 0.95432 7.57807-1.63709zm-2.18671-7.04029c4.46186-1.78528 7.02639-5.48927 3.8006-5.48927-3.05869 0-11.2753 4.19799-11.2753 5.76072 0 2.23867 1.32123 2.19069 7.4747-0.27145zm84.06863-7.36427c1.3865-1.88714 1.1375-6.875-0.3431-6.875-0.7149 0-3.4893 1.11696-6.1652 2.48213-5.3496 2.72918-8.1509 5.74912-4.2541 4.58614 6.8902-2.05631 9.5571-2.37652 8.7367-1.04899-0.4704 0.76114-2.738 1.73708-5.039 2.16875-4.7376 0.88878-11.97863 4.93318-11.97863 6.69054 0 1.32473 17.63533-6.08708 19.04333-8.00357zm-80.29333-3.12796c0-1.87261-3.12431-1.50728-8.04287 0.94046-2.41759 1.20312-4.40945 3.12108-4.42638 4.26214-0.0267 1.80469 0.78251 1.68231 6.21925-0.94046 3.4375-1.6583 6.25-3.57627 6.25-4.26214zm65.4987 2.28675c0.75696-1.51826 4.12443-4.17468 7.48323-5.90317 8.1211-4.17925 5.6027-4.77555-3.3839-0.80122-6.48407 2.86755-7.09803 3.48282-7.09803 7.11317 0 4.20351 0.75011 4.10126 2.9987-0.40878zm-73.3112-4.12521c5.94945-2.56211 7.21342-5.14698 1.875-3.83444-4.36229 1.07253-9.0625 4.08526-9.0625 5.80884 0 0.72894 0.42187 1.09766 0.9375 0.81937 0.51562-0.27828 3.32812-1.53548 6.25-2.79377zm-1.60491-5.2651c2.65997-1.26845 4.41741-3.00902 4.41741-4.375 0-2.83776-0.25404-2.8274-6.2998 0.25692-2.72261 1.38897-4.9502 3.35772-4.9502 4.375 0 2.38444 1.40433 2.33164 6.83259-0.25692zm-12.23725-8.99179c1.28635-0.74804 1.58135-1.34224 0.67701-1.36368-1.94923-0.0462-10.27235 3.34541-10.27235 4.18595 0 0.81396 6.76314-1.17527 9.59534-2.82227z"/>
</svg>
